<svg width="803" height="799" viewBox="0 0 803 799" fill="none" xmlns="http://www.w3.org/2000/svg">
<path d="M503.435 665.838H439.362L128.979 133.189H193.053L503.435 665.838ZM803 266.352H326.193L170.585 1.27565C170.585 1.27565 289.579 -8.29537 357.813 24.9952C426.88 58.2857 441.026 89.0794 594.137 106.557C709.802 119.873 764.722 140.264 788.854 218.08L803 266.352ZM370.295 665.838C370.295 739.493 287.083 799 185.148 799C82.7964 799 0 739.493 0 665.838C0 592.183 83.2124 532.676 185.148 532.676C287.499 532.676 370.295 592.183 370.295 665.838Z" fill="#D60F3C" fill-opacity="0.05"/>
</svg>
