<svg width="501" height="174" viewBox="0 0 501 174" fill="none" xmlns="http://www.w3.org/2000/svg">
<path d="M108.806 144.468H94.9579L27.8759 29.3677H41.7239L108.806 144.468ZM173.55 58.1428H70.499L36.8681 0.862358C36.8681 0.862358 62.5859 -1.20585 77.3331 5.98793C92.2602 13.1817 95.3176 19.8359 128.409 23.6127C153.407 26.4902 165.277 30.8964 170.493 47.7118L173.55 58.1428ZM80.0308 144.468C80.0308 160.384 62.0463 173.243 40.0154 173.243C17.8945 173.243 0 160.384 0 144.468C0 128.552 17.9844 115.693 40.0154 115.693C62.1363 115.693 80.0308 128.552 80.0308 144.468Z" fill="#D60F3C"/>
<path d="M209.64 31.2478H213.147L217.103 42.2183H217.283L221.06 31.2478H224.567V52.1097H220.97V39.9702H220.79L218.003 48.6927H216.204L213.327 39.9702H213.147V52.1996H209.55V31.2478H209.64ZM227.714 31.2478H236.706V34.485H231.311V39.9702H235.987V43.1175H231.221V48.7826H236.796V52.1097H227.804V31.2478H227.714ZM246.058 39.9702V31.2478H249.655V39.9702H250.285C251.004 39.9702 251.813 39.8803 252.083 37.4524L252.353 35.1144C252.623 31.9671 254.061 30.8881 257.119 30.8881H257.478V34.0353H257.119C256.399 34.0353 255.68 34.2152 255.5 36.1036L255.32 38.1718C255.32 39.1609 254.871 40.8694 254.061 41.409L257.119 52.0198H253.342L251.004 43.0276H249.565V52.0198H246.058V43.0276H244.71L242.372 52.0198H238.505L241.562 41.409C240.663 40.8694 240.393 39.1609 240.303 38.1718L240.123 36.1036C239.944 34.3051 239.224 34.0353 238.505 34.0353H238.235V30.978H238.505C241.562 30.978 243.001 32.0571 243.361 35.2043L243.541 37.5423C243.81 39.9702 244.62 40.0601 245.339 40.0601H246.058V39.9702ZM271.866 48.9624V55.257H268.629V52.1097H261.255V55.257H257.928V48.9624H259.457C261.615 43.9268 261.255 38.3516 261.255 32.3268V31.2478H270.247V48.9624H271.866ZM264.672 34.3051V35.6539C264.915 40.2227 264.305 44.7967 262.874 49.1423H266.74V34.3051H264.492H264.672ZM276.182 31.2478L278.88 40.9594C278.97 39.7904 279.419 37.8121 279.599 36.733L280.858 31.2478H284.455L280.858 44.826C279.959 48.4229 279.509 52.1097 274.833 52.1097H273.575V48.9624H274.474C275.733 48.9624 276.362 48.2431 276.722 46.5345L276.902 45.7252L272.046 31.3377H276.092L276.182 31.2478ZM289.491 31.2478V39.9702H293.268V31.2478H296.864V52.1097H293.268V43.1175H289.491V52.1097H285.894V31.2478H289.491ZM307.655 52.1097L306.756 47.7934H302.979L302.08 52.1097H298.663L302.889 31.2478H306.936L311.162 52.1097H307.655ZM304.778 37.0028L303.249 44.6462H306.216L304.778 37.0028ZM312.871 31.2478H317.457C323.032 31.2478 323.661 34.8446 323.661 37.5423V37.902C323.661 41.6787 322.043 44.0167 317.636 44.0167H316.288V52.1097H312.781L312.871 31.2478ZM316.467 40.9594H317.816C319.884 40.9594 320.154 39.7004 320.154 37.902V37.0927C320.154 35.2043 319.705 34.3051 317.457 34.3051H316.378V40.8694L316.467 40.9594ZM337.06 46.8942C337.073 47.6078 336.945 48.317 336.683 48.9807C336.42 49.6444 336.029 50.2495 335.531 50.7609C334.473 51.7935 333.053 52.3715 331.574 52.3715C330.096 52.3715 328.676 51.7935 327.618 50.7609C327.087 50.2646 326.663 49.6663 326.369 49.0019C326.076 48.3374 325.919 47.6206 325.909 46.8942V36.3733C325.919 35.647 326.076 34.9301 326.369 34.2657C326.663 33.6013 327.087 33.003 327.618 32.5067C328.676 31.4741 330.096 30.8961 331.574 30.8961C333.053 30.8961 334.473 31.4741 335.531 32.5067C336.045 33.0106 336.453 33.6123 336.731 34.2764C337.009 34.9404 337.151 35.6534 337.15 36.3733V46.8942H337.06ZM333.463 36.3733C333.463 35.8338 333.283 35.3842 332.923 34.9346C332.73 34.7361 332.5 34.5783 332.245 34.4705C331.99 34.3627 331.716 34.3072 331.44 34.3072C331.163 34.3072 330.889 34.3627 330.634 34.4705C330.379 34.5783 330.149 34.7361 329.956 34.9346C329.596 35.3842 329.416 35.8338 329.416 36.3733V46.8942C329.416 47.4338 329.596 47.8834 329.956 48.333C330.149 48.5315 330.379 48.6893 330.634 48.797C330.889 48.9048 331.163 48.9603 331.44 48.9603C331.716 48.9603 331.99 48.9048 332.245 48.797C332.5 48.6893 332.73 48.5315 332.923 48.333C333.283 47.8834 333.553 47.4338 333.553 46.8942V36.3733H333.463ZM352.167 48.9624V55.257H349.019V52.1097H341.556V55.257H338.229V48.9624H339.757C342.005 43.9268 341.646 38.3516 341.646 32.3268V31.2478H350.638V48.9624H352.257H352.167ZM344.973 34.3051V35.6539C345.215 40.2227 344.606 44.7967 343.174 49.1423H347.041V34.3051H344.883H344.973ZM357.382 31.2478V39.9702H361.249V31.2478H364.756V52.1097H361.159V43.1175H357.382V52.1097H353.785V31.2478H357.382ZM372.849 39.4307C375.906 39.4307 378.514 40.5997 378.514 44.2865V46.7144C378.607 47.4544 378.526 48.2061 378.276 48.9089C378.026 49.6117 377.615 50.246 377.075 50.7609C376.54 51.2681 375.901 51.6518 375.202 51.8849C374.502 52.118 373.761 52.1947 373.029 52.1097H367.903V31.2478H371.5V39.4307H372.849ZM371.5 48.9624H372.579C373.478 48.9624 375.097 48.9624 375.097 45.995V45.3655C375.097 43.7469 374.377 42.6679 372.849 42.6679H371.5V48.9624ZM384.359 31.2478V52.1097H380.762V31.2478H384.359ZM390.923 31.2478V43.2973L395.419 33.5857V31.2478H398.926V52.1097H395.329V39.9702L390.923 49.8617V52.1996H387.416V31.2478H391.013H390.923ZM392.002 26.302C392.002 26.9315 392.092 27.6509 393.171 27.6509C394.25 27.6509 394.34 26.9315 394.34 26.302H397.218C397.218 29.0896 395.149 29.8989 393.171 29.8989C391.193 29.8989 389.125 29.0896 389.125 26.302H392.002ZM412.594 31.2478V39.9702H413.853C415.022 39.9702 415.382 39.2508 415.652 37.2725L415.832 34.5749C415.835 34.0391 415.957 33.5108 416.191 33.0285C416.424 32.5462 416.762 32.1221 417.18 31.7873C417.583 31.436 418.056 31.1741 418.568 31.0191C419.079 30.8641 419.618 30.8194 420.148 30.8881H420.777V34.0353H420.238C419.608 34.0353 419.159 34.485 418.979 36.1036L418.799 38.2617C418.709 39.1609 418.529 40.7795 417.63 41.2291L420.777 52.0198H416.911L414.573 43.0276H412.594V52.0198H409.087V31.1578H412.684L412.594 31.2478ZM433.276 46.8942C433.29 47.6078 433.162 48.317 432.9 48.9807C432.637 49.6444 432.246 50.2495 431.748 50.7609C430.69 51.7935 429.27 52.3715 427.791 52.3715C426.313 52.3715 424.893 51.7935 423.835 50.7609C423.321 50.257 422.912 49.6552 422.634 48.9912C422.356 48.3271 422.214 47.6141 422.216 46.8942V36.3733C422.214 35.6534 422.356 34.9404 422.634 34.2764C422.912 33.6123 423.321 33.0106 423.835 32.5067C424.893 31.4741 426.313 30.8961 427.791 30.8961C429.27 30.8961 430.69 31.4741 431.748 32.5067C432.262 33.0106 432.67 33.6123 432.948 34.2764C433.226 34.9404 433.368 35.6534 433.366 36.3733V46.8942H433.276ZM429.769 36.3733C429.769 35.8338 429.59 35.3842 429.14 34.9346C428.754 34.561 428.238 34.3521 427.701 34.3521C427.164 34.3521 426.648 34.561 426.262 34.9346C425.813 35.3842 425.633 35.8338 425.633 36.3733V46.8942C425.633 47.4338 425.813 47.8834 426.262 48.333C426.648 48.7066 427.164 48.9154 427.701 48.9154C428.238 48.9154 428.754 48.7066 429.14 48.333C429.59 47.8834 429.769 47.4338 429.769 46.8942V36.3733ZM439.841 31.2478V39.9702H443.618V31.2478H447.214V52.1097H443.618V43.1175H439.841V52.1097H436.244V31.2478H439.841ZM453.869 31.2478V39.9702H455.038C456.297 39.9702 456.566 39.2508 456.836 37.2725L457.106 34.5749C457.098 34.0463 457.207 33.5224 457.424 33.0406C457.642 32.5588 457.963 32.1309 458.365 31.7873C458.768 31.436 459.24 31.1741 459.752 31.0191C460.263 30.8641 460.802 30.8194 461.332 30.8881H462.052V34.0353H461.602C460.973 34.0353 460.433 34.485 460.343 36.1036L460.163 38.2617C460.073 39.1609 459.893 40.7795 458.994 41.2291L462.141 52.0198H458.275L455.937 43.0276H453.869V52.0198H450.362V31.1578H453.869V31.2478ZM466.638 31.2478L469.335 40.9594L469.965 36.733L471.224 31.2478H474.821L471.314 44.826C470.414 48.4229 469.875 52.1097 465.289 52.1097H464.03V48.9624H464.929C466.188 48.9624 466.817 48.2431 467.177 46.5345L467.267 45.7252L462.501 31.3377H466.638V31.2478ZM476.439 31.2478H480.935C486.51 31.2478 487.14 34.8446 487.14 37.5423V37.902C487.14 41.6787 485.611 44.0167 481.115 44.0167H479.856V52.1097H476.259L476.439 31.2478ZM479.946 40.9594H481.295C483.363 40.9594 483.723 39.7004 483.723 37.902V37.0927C483.723 35.2043 483.183 34.3051 481.025 34.3051H479.946V40.8694V40.9594ZM496.402 36.3733C496.402 35.8338 496.402 34.3051 494.603 34.3051C492.985 34.3051 492.805 35.7439 492.805 36.8229V46.4446C492.805 48.2431 493.255 49.0524 494.603 49.0524C495.413 49.0524 496.402 48.8725 496.402 46.8043V46.0849H499.999V46.9841C499.999 50.3113 498.2 52.3795 494.513 52.3795C493.866 52.4351 493.214 52.3604 492.597 52.1596C491.979 51.9588 491.407 51.636 490.917 51.2105C490.429 50.7668 490.041 50.2249 489.777 49.6205C489.514 49.0161 489.381 48.3628 489.388 47.7035V36.0136C489.38 35.3409 489.511 34.6738 489.774 34.0546C490.038 33.4354 490.427 32.8777 490.917 32.4167C491.398 31.9283 491.972 31.5414 492.605 31.2788C493.238 31.0162 493.918 30.8834 494.603 30.8881C495.283 30.8716 495.958 30.9903 496.591 31.2373C497.224 31.4843 497.802 31.8546 498.29 32.3268C498.776 32.7911 499.162 33.3494 499.425 33.9679C499.688 34.5863 499.822 35.2518 499.819 35.9237V37.2725H496.492V36.3733H496.402ZM220.341 62.9004V83.8523H216.744V66.0477H213.147V83.8523H209.55V62.9903L220.341 62.9004ZM226.905 62.9004V75.0399L231.311 65.3283V62.9903H234.908V83.9422H231.311V71.6228L226.815 81.5143V83.9422H223.308V62.9903L226.905 62.9004ZM245.519 83.8523L244.62 79.4461H240.753L239.854 83.8523H236.437L240.753 62.9004H244.71L248.936 83.8523H245.519ZM242.551 68.6554L241.023 76.3887H244.08L242.551 68.6554ZM254.061 62.9004V71.7128H257.928V62.9004H261.435V83.8523H257.838V74.86H254.061V83.8523H250.554V62.9004H254.151H254.061ZM267.909 62.9004V75.0399L272.406 65.3283V62.9903H276.002V83.9422H272.406V71.6228L267.909 81.5143V83.9422H264.492V62.9903L268.089 62.9004H267.909ZM285.714 68.0259C285.714 67.5763 285.714 65.9577 284.006 65.9577C282.207 65.9577 282.207 67.4864 282.207 68.4756V78.1872C282.207 79.8957 282.657 80.705 283.916 80.705C284.815 80.705 285.714 80.5251 285.714 78.5469V77.7375H289.221V78.6368C289.221 81.874 287.423 84.0321 283.826 84.0321C283.172 84.0757 282.517 83.9866 281.899 83.7702C281.28 83.5539 280.712 83.2147 280.229 82.7732C279.752 82.3396 279.371 81.8123 279.108 81.2243C278.845 80.6363 278.706 80.0003 278.7 79.3562V67.6663C278.68 67.0001 278.798 66.3369 279.045 65.7181C279.293 65.0993 279.665 64.5381 280.139 64.0694C280.63 63.5699 281.219 63.1766 281.869 62.9136C282.518 62.6507 283.215 62.5238 283.916 62.5407C284.589 62.5122 285.261 62.6167 285.893 62.8481C286.526 63.0796 287.107 63.4335 287.602 63.8895C288.088 64.3538 288.474 64.9122 288.737 65.5306C289 66.149 289.134 66.8145 289.131 67.4864V68.9252H285.714V68.0259ZM300.821 62.9004V66.2275H297.134V83.8523H293.537V66.2275H289.94V62.9004H300.731H300.821ZM312.781 78.6368C312.76 80.0599 312.179 81.4174 311.162 82.4135C310.104 83.4461 308.684 84.0241 307.205 84.0241C305.727 84.0241 304.307 83.4461 303.249 82.4135C302.735 81.9096 302.327 81.3079 302.049 80.6438C301.771 79.9797 301.628 79.2668 301.63 78.5469V68.1159C301.617 67.4023 301.745 66.6931 302.007 66.0294C302.27 65.3656 302.661 64.7606 303.159 64.2492C304.217 63.2166 305.637 62.6386 307.116 62.6386C308.594 62.6386 310.014 63.2166 311.072 64.2492C311.586 64.7531 311.994 65.3549 312.272 66.0189C312.55 66.683 312.693 67.396 312.691 68.1159V78.5469L312.781 78.6368ZM309.274 68.1159C309.284 67.8441 309.233 67.5734 309.124 67.3242C309.015 67.0749 308.851 66.8537 308.644 66.6771C308.258 66.3035 307.742 66.0947 307.205 66.0947C306.668 66.0947 306.152 66.3035 305.767 66.6771C305.56 66.8537 305.396 67.0749 305.287 67.3242C305.178 67.5734 305.127 67.8441 305.137 68.1159V78.5469C305.137 79.0864 305.317 79.6259 305.767 79.9856C306.152 80.3592 306.668 80.5681 307.205 80.5681C307.742 80.5681 308.258 80.3592 308.644 79.9856C309.094 79.6259 309.274 79.0864 309.274 78.5469V68.1159ZM320.334 62.9004C324.201 62.9004 325.909 64.6988 325.909 68.1159C325.909 70.4538 325.909 71.8926 323.841 72.9717C324.595 73.2644 325.229 73.803 325.64 74.5004C325.999 75.2197 326.179 76.029 325.999 76.8383V78.2771C325.999 80.0755 325.729 83.7623 320.424 83.7623H315.568V62.8105L320.334 62.9004ZM319.075 71.3531H320.424C322.222 71.3531 322.402 70.1841 322.402 69.105V67.8461C322.402 66.9469 321.863 66.0477 320.154 66.0477H319.255L319.075 71.443V71.3531ZM319.075 80.705H320.244C321.503 80.705 322.492 79.9856 322.492 78.0073V77.2879C322.492 75.4895 321.863 74.5004 320.424 74.5004H319.165V80.705H319.075ZM332.204 80.0755V83.6724L328.337 86.9995V80.0755H332.204ZM343.084 62.9004V71.7128H344.253C345.422 71.7128 345.782 71.0833 346.052 69.0151L346.322 66.3174C346.327 65.804 346.442 65.2976 346.659 64.8322C346.876 64.3669 347.19 63.9535 347.581 63.6198C347.983 63.2684 348.456 63.0066 348.968 62.8516C349.479 62.6966 350.018 62.6519 350.548 62.7205H351.177V65.7779H350.728C350.098 65.7779 349.559 66.3174 349.469 67.8461L349.289 70.0042C349.199 70.9035 349.019 72.5221 348.12 72.9717L351.267 83.7623H347.401L345.063 74.7701H342.995V83.7623H339.488V62.8105L343.084 62.9004ZM363.047 78.6368C363.025 79.3478 362.863 80.0476 362.57 80.6958C362.277 81.3439 361.858 81.9277 361.339 82.4135C360.281 83.4461 358.861 84.0241 357.382 84.0241C355.904 84.0241 354.484 83.4461 353.425 82.4135C352.911 81.9096 352.503 81.3079 352.225 80.6438C351.947 79.9797 351.805 79.2668 351.807 78.5469V68.1159C351.805 67.396 351.947 66.683 352.225 66.0189C352.503 65.3549 352.911 64.7531 353.425 64.2492C354.484 63.2166 355.904 62.6386 357.382 62.6386C358.861 62.6386 360.281 63.2166 361.339 64.2492C361.869 64.7455 362.294 65.3438 362.587 66.0082C362.881 66.6727 363.037 67.3895 363.047 68.1159V78.5469V78.6368ZM359.45 68.1159C359.45 67.5763 359.27 67.0368 358.911 66.6771C358.718 66.4786 358.487 66.3208 358.232 66.213C357.978 66.1053 357.704 66.0498 357.427 66.0498C357.15 66.0498 356.876 66.1053 356.622 66.213C356.367 66.3208 356.136 66.4786 355.943 66.6771C355.584 67.0368 355.314 67.5763 355.314 68.1159V78.5469C355.314 79.0864 355.584 79.6259 355.943 79.9856C356.136 80.1841 356.367 80.3419 356.622 80.4497C356.876 80.5574 357.15 80.613 357.427 80.613C357.704 80.613 357.978 80.5574 358.232 80.4497C358.487 80.3419 358.718 80.1841 358.911 79.9856C359.27 79.6259 359.45 79.0864 359.45 78.5469V68.1159ZM365.835 62.9004H369.432L373.388 73.9608H373.568L377.255 62.9004H380.852V83.8523H377.255V71.443H377.075L374.198 80.1654H372.399L369.611 71.443H369.432V83.7623H365.835V62.9004ZM394.52 62.9004V83.8523H391.013V66.0477H387.416V83.8523H383.819V62.9903L394.61 62.9004H394.52ZM408.548 78.6368C408.528 80.0599 407.946 81.4174 406.929 82.4135C405.871 83.4461 404.451 84.0241 402.973 84.0241C401.494 84.0241 400.074 83.4461 399.016 82.4135C398.502 81.9096 398.094 81.3079 397.816 80.6438C397.538 79.9797 397.396 79.2668 397.397 78.5469V68.1159C397.396 67.396 397.538 66.683 397.816 66.0189C398.094 65.3549 398.502 64.7531 399.016 64.2492C400.074 63.2166 401.494 62.6386 402.973 62.6386C404.451 62.6386 405.871 63.2166 406.929 64.2492C407.443 64.7531 407.851 65.3549 408.129 66.0189C408.407 66.683 408.55 67.396 408.548 68.1159V78.5469V78.6368ZM405.041 68.1159C405.052 67.8441 405.001 67.5734 404.891 67.3242C404.782 67.0749 404.618 66.8537 404.411 66.6771C404.026 66.3035 403.51 66.0947 402.973 66.0947C402.436 66.0947 401.92 66.3035 401.534 66.6771C401.327 66.8537 401.163 67.0749 401.054 67.3242C400.945 67.5734 400.894 67.8441 400.904 68.1159V78.5469C400.904 79.0864 401.084 79.6259 401.534 79.9856C401.92 80.3592 402.436 80.5681 402.973 80.5681C403.51 80.5681 404.026 80.3592 404.411 79.9856C404.861 79.6259 405.041 79.0864 405.041 78.5469V68.1159ZM410.436 67.5763C410.445 66.8978 410.593 66.2284 410.871 65.6096C411.15 64.9908 411.553 64.4359 412.055 63.9794C412.554 63.4962 413.146 63.1194 413.795 62.8721C414.445 62.6248 415.137 62.512 415.832 62.5407C416.505 62.5072 417.178 62.6093 417.812 62.841C418.445 63.0727 419.025 63.4293 419.518 63.8895C420.013 64.347 420.405 64.9041 420.668 65.5241C420.932 66.1441 421.061 66.8129 421.047 67.4864V68.9252C421.147 69.7292 421.003 70.5447 420.635 71.2662C420.266 71.9876 419.689 72.5818 418.979 72.9717C419.674 73.331 420.245 73.893 420.614 74.5835C420.983 75.2739 421.134 76.0602 421.047 76.8383V78.9965C421.099 79.6929 420.996 80.3923 420.748 81.0449C420.499 81.6975 420.11 82.2875 419.608 82.7732C419.087 83.2733 418.463 83.6532 417.779 83.8862C417.096 84.1192 416.37 84.1997 415.652 84.122C415.004 84.1777 414.353 84.1029 413.735 83.9021C413.117 83.7013 412.546 83.3786 412.055 82.953C411.562 82.5276 411.163 82.0038 410.885 81.4154C410.606 80.827 410.453 80.1869 410.436 79.536V77.7375H413.853V78.9065C413.821 79.1508 413.844 79.3992 413.922 79.633C414 79.8667 414.13 80.0796 414.303 80.2554C414.478 80.4342 414.688 80.5745 414.92 80.6674C415.153 80.7603 415.402 80.8037 415.652 80.7949C417.27 80.7949 417.45 79.2662 417.45 78.4569V77.0182C417.45 76.2089 417.45 74.5004 415.202 74.5004H414.123V71.3531H415.022C415.335 71.3678 415.647 71.3196 415.94 71.2115C416.234 71.1034 416.503 70.9375 416.731 70.7236C416.954 70.5166 417.133 70.2664 417.257 69.9882C417.38 69.7099 417.446 69.4095 417.45 69.105V67.8461C417.483 67.6019 417.459 67.3534 417.381 67.1197C417.303 66.8859 417.173 66.673 417.001 66.4973C416.829 66.3137 416.619 66.1703 416.386 66.077C416.153 65.9837 415.902 65.943 415.652 65.9577C414.123 65.9577 413.853 67.1267 413.853 68.0259V68.9252H410.346L410.436 67.5763ZM427.252 62.9004V75.0399L431.748 65.3283V62.9903H435.345V83.9422H431.748V71.6228L427.252 81.5143V83.9422H423.745V62.9903L427.342 62.9004H427.252ZM447.934 62.9004V66.2275H444.337V83.8523H440.74V66.2275H437.143V62.9004H447.934ZM459.983 78.6368C459.963 80.0599 459.381 81.4174 458.365 82.4135C457.307 83.4461 455.887 84.0241 454.408 84.0241C452.93 84.0241 451.51 83.4461 450.452 82.4135C449.921 81.9172 449.496 81.3189 449.203 80.6545C448.909 79.99 448.753 79.2732 448.743 78.5469V68.1159C448.753 67.3895 448.909 66.6727 449.203 66.0082C449.496 65.3438 449.921 64.7455 450.452 64.2492C451.51 63.2166 452.93 62.6386 454.408 62.6386C455.887 62.6386 457.307 63.2166 458.365 64.2492C458.879 64.7531 459.287 65.3549 459.565 66.0189C459.843 66.683 459.985 67.396 459.983 68.1159V78.5469V78.6368ZM456.386 68.1159C456.386 67.5763 456.207 67.0368 455.847 66.6771C455.654 66.4786 455.424 66.3208 455.169 66.213C454.914 66.1053 454.64 66.0498 454.363 66.0498C454.087 66.0498 453.813 66.1053 453.558 66.213C453.303 66.3208 453.072 66.4786 452.879 66.6771C452.52 67.0368 452.34 67.5763 452.34 68.1159V78.5469C452.34 79.0864 452.52 79.6259 452.879 79.9856C453.072 80.1841 453.303 80.3419 453.558 80.4497C453.813 80.5574 454.087 80.613 454.363 80.613C454.64 80.613 454.914 80.5574 455.169 80.4497C455.424 80.3419 455.654 80.1841 455.847 79.9856C456.207 79.6259 456.476 79.0864 456.476 78.5469V68.1159H456.386ZM462.771 62.9004H467.357C472.932 62.9004 473.562 66.4973 473.562 69.1949V69.6446C473.562 73.3314 472.033 75.7593 467.537 75.7593H466.278V83.8523H462.681L462.771 62.9004ZM466.368 72.612H467.807C469.785 72.612 470.145 71.3531 470.145 69.6446V68.7453C470.145 66.9469 469.605 66.0477 467.447 66.0477H466.368V72.612ZM486.78 78.6368C486.76 80.0599 486.178 81.4174 485.162 82.4135C484.103 83.4461 482.684 84.0241 481.205 84.0241C479.727 84.0241 478.307 83.4461 477.248 82.4135C476.734 81.9096 476.326 81.3079 476.048 80.6438C475.77 79.9797 475.628 79.2668 475.63 78.5469V68.1159C475.628 67.396 475.77 66.683 476.048 66.0189C476.326 65.3549 476.734 64.7531 477.248 64.2492C478.307 63.2166 479.727 62.6386 481.205 62.6386C482.684 62.6386 484.103 63.2166 485.162 64.2492C485.676 64.7531 486.084 65.3549 486.362 66.0189C486.64 66.683 486.782 67.396 486.78 68.1159V78.5469V78.6368ZM483.273 68.1159C483.273 67.5763 483.093 67.0368 482.734 66.6771C482.541 66.4786 482.31 66.3208 482.055 66.213C481.801 66.1053 481.527 66.0498 481.25 66.0498C480.973 66.0498 480.699 66.1053 480.445 66.213C480.19 66.3208 479.959 66.4786 479.766 66.6771C479.559 66.8537 479.395 67.0749 479.286 67.3242C479.177 67.5734 479.126 67.8441 479.137 68.1159V78.5469C479.137 79.0864 479.317 79.6259 479.766 79.9856C479.959 80.1841 480.19 80.3419 480.445 80.4497C480.699 80.5574 480.973 80.613 481.25 80.613C481.527 80.613 481.801 80.5574 482.055 80.4497C482.31 80.3419 482.541 80.1841 482.734 79.9856C483.093 79.6259 483.273 79.0864 483.273 78.5469V68.1159ZM494.424 62.9004C498.2 62.9004 499.999 64.6988 499.999 68.1159C499.999 70.4538 499.999 71.8926 497.931 72.9717C498.685 73.2644 499.318 73.803 499.729 74.5004C500.089 75.2197 500.179 76.029 500.089 76.8383V78.2771C500.089 80.0755 499.819 83.7623 494.513 83.7623H489.658V62.8105L494.424 62.9004ZM493.165 71.3531H494.424C496.222 71.3531 496.402 70.1841 496.402 69.105V67.8461C496.402 66.9469 495.952 66.0477 494.244 66.0477H493.165V71.443V71.3531ZM493.165 80.705H494.244C495.593 80.705 496.582 79.9856 496.582 78.0073V77.2879C496.582 75.4895 495.952 74.5004 494.424 74.5004H493.165V80.705ZM213.147 94.553V106.693L217.643 96.9809V94.553H221.15V115.505H217.553V103.275L213.147 113.167V115.505H209.64V94.553H213.147ZM243.271 112.448V118.742H239.944V115.505H232.48V118.652H229.153V112.358H230.772C232.93 107.322 232.57 101.747 232.57 95.722V94.553H241.562V112.358H243.271V112.448ZM235.897 97.7902V99.139C235.897 103.545 235.717 109.48 234.189 112.627H237.965V97.7902H235.897ZM248.306 94.553V106.693L252.713 96.9809V94.553H256.22V115.505H252.623V103.275L248.216 113.167V115.505H244.71V94.553H248.306ZM259.277 94.553H263.773C269.348 94.553 269.978 98.2398 269.978 100.848V101.297C269.978 105.074 268.449 107.412 264.043 107.412H262.694V115.505H259.097L259.277 94.553ZM262.784 104.265H264.223C266.201 104.265 266.561 103.096 266.561 101.297V100.488C266.561 98.5995 266.021 97.7003 263.863 97.7003H262.694V104.265H262.784ZM275.823 94.553V106.693L280.319 96.9809V94.553H283.736V115.505H280.229V103.275L275.733 113.167V115.505H272.316V94.553H275.823ZM293.537 103.455V94.6429H297.134V103.455H297.764C298.483 103.455 299.292 103.455 299.562 101.027L299.832 98.5995C300.192 95.5421 301.54 94.3732 304.598 94.3732H304.957V97.5204H304.598C303.878 97.5204 303.159 97.7003 302.979 99.5887L302.799 101.657C302.799 102.646 302.35 104.355 301.54 104.894L304.598 115.505H300.821L298.393 106.513H297.044V115.505H293.537V106.513H292.188L289.85 115.505H285.984L289.041 104.894C288.142 104.355 287.872 102.646 287.782 101.657L287.602 99.5887C287.423 97.7902 286.703 97.5204 285.984 97.5204H285.624V94.3732H285.984C289.041 94.3732 290.48 95.4522 290.75 98.5995L291.019 100.937C291.289 103.365 292.099 103.455 292.818 103.455H293.537ZM306.756 94.553H315.748V97.8801H310.353V103.365H315.119V106.513H310.353V112.178H315.928V115.505H306.756V94.553ZM318.446 94.553H322.942C328.517 94.553 329.146 98.2398 329.146 100.848V101.297C329.146 105.074 327.528 107.412 323.122 107.412H321.773V115.505H318.266L318.356 94.553H318.446ZM321.863 104.265H323.302C325.37 104.265 325.64 103.096 325.64 101.297V100.488C325.64 98.5995 325.19 97.7003 322.942 97.7003H321.863V104.265ZM342.275 110.289C342.265 111.016 342.109 111.733 341.815 112.397C341.522 113.061 341.097 113.66 340.567 114.156C339.495 115.159 338.077 115.707 336.61 115.685C335.145 115.697 333.73 115.151 332.653 114.156C332.139 113.652 331.731 113.05 331.453 112.386C331.175 111.722 331.033 111.009 331.035 110.289V99.7685C331.033 99.0486 331.175 98.3356 331.453 97.6715C331.731 97.0075 332.139 96.4058 332.653 95.9018C333.71 94.8663 335.13 94.2854 336.61 94.2832C338.088 94.2948 339.505 94.8743 340.567 95.9018C341.097 96.3981 341.522 96.9964 341.815 97.6609C342.109 98.3253 342.265 99.0422 342.275 99.7685V110.289ZM338.678 99.7685C338.678 99.229 338.498 98.7794 338.139 98.3297C337.946 98.1312 337.715 97.9734 337.46 97.8657C337.206 97.7579 336.932 97.7024 336.655 97.7024C336.378 97.7024 336.104 97.7579 335.85 97.8657C335.595 97.9734 335.364 98.1312 335.171 98.3297C334.812 98.7794 334.542 99.229 334.542 99.7685V110.289C334.542 110.829 334.812 111.279 335.171 111.728C335.364 111.927 335.595 112.084 335.85 112.192C336.104 112.3 336.378 112.356 336.655 112.356C336.932 112.356 337.206 112.3 337.46 112.192C337.715 112.084 337.946 111.927 338.139 111.728C338.498 111.279 338.768 110.829 338.768 110.289V99.7685H338.678ZM349.829 94.553C353.605 94.553 355.404 96.4414 355.404 99.7685C355.404 102.196 355.404 103.635 353.336 104.624C354.104 104.94 354.739 105.512 355.134 106.243C355.494 106.872 355.674 107.682 355.494 108.491V110.02C355.494 111.728 355.224 115.415 349.919 115.415H345.063V94.553H349.829ZM348.57 103.096H349.919C351.717 103.096 351.897 101.927 351.897 100.848V99.5887C351.897 98.6894 351.357 97.7902 349.649 97.7902H348.57V103.096ZM348.57 112.358H349.829C351.088 112.358 352.077 111.728 352.077 109.66V108.941C352.077 107.142 351.537 106.243 350.008 106.243H348.75L348.57 112.358ZM213.147 126.296V138.435L217.643 128.634V126.296H221.15V147.247H217.553V134.838L213.147 144.73V147.158H209.64V126.296H213.147ZM224.207 126.296H227.804L231.671 137.356H231.851L235.717 126.296H239.224V147.247H235.627V134.838H235.537L232.66 143.651H230.862L227.894 134.838H227.714V147.158H224.297V126.296H224.207ZM242.012 126.296H251.004V129.623H245.609V135.018H250.375V138.255H245.609V143.83H251.184V147.158H242.192L242.012 126.296ZM257.119 126.296V135.108H260.985V126.296H264.492V147.247H260.896V138.255H257.119V147.247H253.702V126.296H257.209H257.119ZM271.057 126.296V138.435L275.463 128.634V126.296H279.06V147.247H275.463V134.838L270.967 144.73V147.158H267.46V126.296H271.057ZM295.606 131.421C295.606 130.882 295.606 129.353 293.897 129.353C292.188 129.353 292.099 130.882 292.099 131.871V141.492C292.099 143.291 292.548 144.19 293.807 144.19C294.706 144.19 295.606 143.92 295.606 141.852V141.223H299.112V142.122C299.112 145.359 297.314 147.517 293.717 147.517C293.064 147.561 292.408 147.472 291.79 147.255C291.172 147.039 290.604 146.7 290.12 146.258C289.633 145.815 289.244 145.273 288.981 144.668C288.717 144.064 288.585 143.411 288.592 142.751V131.151C288.572 130.485 288.689 129.822 288.937 129.203C289.184 128.584 289.557 128.023 290.03 127.554C290.522 127.055 291.111 126.662 291.76 126.399C292.41 126.136 293.106 126.009 293.807 126.026C294.48 125.997 295.152 126.102 295.785 126.333C296.417 126.565 296.998 126.919 297.494 127.375C297.98 127.839 298.366 128.397 298.629 129.016C298.891 129.634 299.025 130.3 299.023 130.972V132.41H295.606V131.511V131.421ZM304.867 143.471V147.247H301.001V143.381H304.867V143.471ZM312.241 126.296C316.108 126.296 317.816 128.094 317.816 131.511C317.816 133.849 317.816 135.288 315.838 136.367C316.592 136.66 317.226 137.198 317.636 137.896C317.996 138.615 318.086 139.424 317.996 140.144V141.672C317.996 143.471 317.726 147.068 312.331 147.068H307.655V126.296H312.331H312.241ZM311.072 134.748H312.331C314.13 134.748 314.309 133.579 314.309 132.5V131.241C314.309 130.342 313.86 129.443 312.061 129.443H311.072V134.748ZM311.072 144.1H312.151C313.41 144.1 314.489 143.381 314.489 141.402V140.683C314.489 138.885 313.86 137.896 312.331 137.896H311.072V144.1ZM324.111 143.471V147.247H320.334V143.381H324.111V143.471ZM333.643 126.296H338.229C343.714 126.296 344.343 129.892 344.343 132.59V133.04C344.343 136.727 342.815 139.154 338.409 139.154H337.06V147.247H333.463L333.643 126.296ZM337.239 136.007H338.588C340.657 136.007 340.926 134.748 340.926 133.04V132.14C340.926 130.342 340.477 129.443 338.229 129.443H337.15V136.007H337.239ZM353.066 147.247L352.167 142.841H348.39L347.491 147.247H344.074L348.3 126.296H352.257L356.483 147.247H353.066ZM350.278 132.051L348.75 139.694H351.627L350.278 132.051ZM361.069 126.296L363.317 132.32L365.475 126.296H369.432L365.115 136.187L369.701 147.247H366.105L363.317 140.144L360.709 147.247H356.843L361.429 136.187L357.382 126.296H361.069ZM371.5 126.296H375.097L379.053 137.356H379.143L382.92 126.296H386.427V147.247H382.83V134.838H382.74L379.863 143.651H378.064L375.187 134.838H375.007V147.158H371.5V126.296ZM397.128 147.247L396.228 142.841H392.362L391.463 147.247H388.135L392.362 126.296H396.318L400.545 147.247H397.128ZM394.25 132.051L392.722 139.694H395.779L394.25 132.051ZM405.67 126.296V135.108H409.537V126.296H413.134V147.247H409.537V138.255H405.76V147.247H402.163V126.296H405.76H405.67ZM419.608 126.296V138.435L424.104 128.634V126.296H427.611V147.247H424.014V134.838L419.608 144.73V147.158H416.101V126.296H419.698H419.608ZM434.176 126.296V135.108H437.952V126.296H441.549V147.247H437.952V138.255H434.176V147.247H430.579V126.296H434.176ZM455.487 141.942C455.489 142.662 455.347 143.375 455.069 144.039C454.791 144.703 454.383 145.305 453.869 145.809C453.348 146.326 452.731 146.735 452.052 147.012C451.373 147.29 450.646 147.431 449.912 147.427C448.434 147.416 447.018 146.836 445.955 145.809C445.441 145.305 445.033 144.703 444.755 144.039C444.477 143.375 444.335 142.662 444.337 141.942V131.511C444.335 130.791 444.477 130.078 444.755 129.414C445.033 128.75 445.441 128.148 445.955 127.644C447.012 126.609 448.432 126.028 449.912 126.026C451.39 126.037 452.807 126.617 453.869 127.644C454.383 128.148 454.791 128.75 455.069 129.414C455.347 130.078 455.489 130.791 455.487 131.511V141.942ZM451.98 131.511C451.991 131.239 451.94 130.969 451.831 130.719C451.722 130.47 451.558 130.249 451.351 130.072C450.965 129.699 450.449 129.49 449.912 129.49C449.375 129.49 448.859 129.699 448.473 130.072C448.266 130.249 448.102 130.47 447.993 130.719C447.884 130.969 447.833 131.239 447.844 131.511V141.942C447.844 142.482 448.024 143.021 448.473 143.381C448.859 143.754 449.375 143.963 449.912 143.963C450.449 143.963 450.965 143.754 451.351 143.381C451.8 143.021 451.98 142.482 451.98 141.942V131.511ZM463.221 126.296C466.997 126.296 468.706 128.094 468.706 131.511C468.706 133.849 468.706 135.288 466.728 136.367C467.482 136.66 468.116 137.198 468.526 137.896C468.886 138.615 468.976 139.424 468.886 140.144V141.672C468.886 143.471 468.616 147.068 463.221 147.068H458.455V126.296H463.131H463.221ZM461.962 134.748H463.131C464.929 134.748 465.199 133.579 465.199 132.5V131.241C465.199 130.342 464.659 129.443 462.951 129.443H461.872V134.748H461.962ZM461.962 144.1H463.041C464.3 144.1 465.379 143.381 465.379 141.402V140.683C465.379 138.885 464.749 137.896 463.221 137.896H461.962V144.1ZM479.137 147.247L478.238 142.841H474.461L473.562 147.247H470.145L474.371 126.296H478.327L482.554 147.247H479.137ZM476.349 132.051L474.821 139.694H477.698L476.349 132.051Z" fill="#1D1D1B"/>
</svg>
