<svg width="274" height="109" viewBox="0 0 274 109" fill="none" xmlns="http://www.w3.org/2000/svg">
<rect width="109" height="108.562" fill="#D60F3C"/>
<path d="M65.2902 82.4692H58.5078L25.6529 26.0961H32.4352L65.2902 82.4692ZM97 40.1894H46.5285L30.057 12.135C30.057 12.135 42.6529 11.1221 49.8756 14.6454C57.1865 18.1687 58.6839 21.4278 74.8912 23.2775C87.1347 24.6868 92.9482 26.8449 95.5026 35.0806L97 40.1894ZM51.1969 82.4692C51.1969 90.2645 42.3886 96.5625 31.5984 96.5625C20.7642 96.5625 12 90.2645 12 82.4692C12 74.6739 20.8083 68.3759 31.5984 68.3759C42.4326 68.3759 51.1969 74.6739 51.1969 82.4692Z" fill="white"/>
<path d="M124.046 25.5444H125.857L127.899 31.2077H127.992L129.942 25.5444H131.752V36.3139H129.895V30.0472H129.803L128.363 34.5499H127.435L125.95 30.0472H125.857V36.3603H124V25.5444H124.046ZM133.377 25.5444H138.019V27.2156H135.234V30.0472H137.647V31.6719H135.187V34.5964H138.065V36.3139H133.423V25.5444H133.377ZM142.847 30.0472V25.5444H144.703V30.0472H145.028C145.4 30.0472 145.817 30.0008 145.957 28.7474L146.096 27.5405C146.235 25.9158 146.978 25.3588 148.556 25.3588H148.742V26.9835H148.556C148.185 26.9835 147.814 27.0763 147.721 28.0511L147.628 29.1188C147.628 29.6294 147.396 30.5114 146.978 30.7899L148.556 36.2675H146.607L145.4 31.6255H144.657V36.2675H142.847V31.6255H142.15L140.943 36.2675H138.947L140.526 30.7899C140.061 30.5114 139.922 29.6294 139.876 29.1188L139.783 28.0511C139.69 27.1227 139.319 26.9835 138.947 26.9835H138.808V25.4052H138.947C140.526 25.4052 141.268 25.9622 141.454 27.5869L141.547 28.7938C141.686 30.0472 142.104 30.0936 142.475 30.0936H142.847V30.0472ZM156.169 34.6892V37.9386H154.498V36.3139H150.692V37.9386H148.974V34.6892H149.763C150.877 32.0897 150.692 29.2116 150.692 26.1015V25.5444H155.334V34.6892H156.169ZM152.456 27.1227V27.819C152.581 30.1775 152.266 32.5387 151.527 34.782H153.523V27.1227H152.363H152.456ZM158.397 25.5444L159.79 30.5578C159.836 29.9543 160.068 28.9331 160.161 28.3761L160.811 25.5444H162.668L160.811 32.5539C160.347 34.4107 160.115 36.3139 157.701 36.3139H157.051V34.6892H157.515C158.165 34.6892 158.49 34.3178 158.676 33.4359L158.769 33.0181L156.262 25.5909H158.351L158.397 25.5444ZM165.267 25.5444V30.0472H167.217V25.5444H169.074V36.3139H167.217V31.6719H165.267V36.3139H163.411V25.5444H165.267ZM174.644 36.3139L174.18 34.0857H172.23L171.766 36.3139H170.002L172.184 25.5444H174.273L176.455 36.3139H174.644ZM173.159 28.5153L172.37 32.461H173.902L173.159 28.5153ZM177.337 25.5444H179.704C182.582 25.5444 182.907 27.4012 182.907 28.7938V28.9795C182.907 30.9292 182.072 32.1361 179.797 32.1361H179.101V36.3139H177.29L177.337 25.5444ZM179.193 30.5578H179.89C180.957 30.5578 181.097 29.9079 181.097 28.9795V28.5617C181.097 27.5869 180.865 27.1227 179.704 27.1227H179.147V30.5114L179.193 30.5578ZM189.824 33.6215C189.831 33.9899 189.765 34.356 189.629 34.6986C189.494 35.0413 189.292 35.3536 189.035 35.6176C188.488 36.1506 187.755 36.449 186.992 36.449C186.229 36.449 185.496 36.1506 184.95 35.6176C184.676 35.3614 184.457 35.0525 184.305 34.7095C184.153 34.3665 184.073 33.9965 184.068 33.6215V28.1904C184.073 27.8154 184.153 27.4454 184.305 27.1024C184.457 26.7594 184.676 26.4505 184.95 26.1943C185.496 25.6613 186.229 25.3629 186.992 25.3629C187.755 25.3629 188.488 25.6613 189.035 26.1943C189.3 26.4545 189.511 26.7651 189.654 27.1079C189.798 27.4507 189.871 27.8188 189.87 28.1904V33.6215H189.824ZM187.967 28.1904C187.967 27.9119 187.874 27.6798 187.688 27.4477C187.589 27.3452 187.47 27.2637 187.338 27.2081C187.207 27.1525 187.065 27.1238 186.922 27.1238C186.78 27.1238 186.638 27.1525 186.507 27.2081C186.375 27.2637 186.256 27.3452 186.156 27.4477C185.971 27.6798 185.878 27.9119 185.878 28.1904V33.6215C185.878 33.9001 185.971 34.1322 186.156 34.3643C186.256 34.4667 186.375 34.5482 186.507 34.6038C186.638 34.6594 186.78 34.6881 186.922 34.6881C187.065 34.6881 187.207 34.6594 187.338 34.6038C187.47 34.5482 187.589 34.4667 187.688 34.3643C187.874 34.1322 188.013 33.9001 188.013 33.6215V28.1904H187.967ZM197.622 34.6892V37.9386H195.998V36.3139H192.145V37.9386H190.427V34.6892H191.216C192.377 32.0897 192.191 29.2116 192.191 26.1015V25.5444H196.833V34.6892H197.669H197.622ZM193.909 27.1227V27.819C194.034 30.1775 193.719 32.5387 192.98 34.782H194.976V27.1227H193.862H193.909ZM200.315 25.5444V30.0472H202.311V25.5444H204.121V36.3139H202.264V31.6719H200.315V36.3139H198.458V25.5444H200.315ZM208.299 29.7687C209.877 29.7687 211.223 30.3721 211.223 32.2753V33.5287C211.272 33.9107 211.23 34.2987 211.101 34.6615C210.972 35.0244 210.759 35.3518 210.481 35.6176C210.205 35.8794 209.874 36.0775 209.514 36.1978C209.153 36.3182 208.77 36.3578 208.392 36.3139H205.746V25.5444H207.603V29.7687H208.299ZM207.603 34.6892H208.16C208.624 34.6892 209.459 34.6892 209.459 33.1573V32.8324C209.459 31.9968 209.088 31.4398 208.299 31.4398H207.603V34.6892ZM214.241 25.5444V36.3139H212.384V25.5444H214.241ZM217.629 25.5444V31.7647L219.95 26.7514V25.5444H221.761V36.3139H219.904V30.0472L217.629 35.1534V36.3603H215.819V25.5444H217.676H217.629ZM218.186 22.9913C218.186 23.3163 218.233 23.6876 218.79 23.6876C219.347 23.6876 219.393 23.3163 219.393 22.9913H220.879C220.879 24.4304 219.811 24.8481 218.79 24.8481C217.769 24.8481 216.701 24.4304 216.701 22.9913H218.186ZM228.817 25.5444V30.0472H229.466C230.07 30.0472 230.256 29.6758 230.395 28.6546L230.488 27.262C230.489 26.9854 230.553 26.7127 230.673 26.4637C230.793 26.2147 230.968 25.9958 231.184 25.823C231.392 25.6416 231.636 25.5064 231.9 25.4264C232.164 25.3464 232.442 25.3233 232.716 25.3588H233.041V26.9835H232.762C232.437 26.9835 232.205 27.2156 232.112 28.0511L232.02 29.1652C231.973 29.6294 231.88 30.465 231.416 30.6971L233.041 36.2675H231.045L229.838 31.6255H228.817V36.2675H227.006V25.498H228.863L228.817 25.5444ZM239.493 33.6215C239.5 33.9899 239.434 34.356 239.299 34.6986C239.163 35.0413 238.961 35.3536 238.704 35.6176C238.158 36.1506 237.425 36.449 236.662 36.449C235.898 36.449 235.165 36.1506 234.619 35.6176C234.354 35.3575 234.143 35.0468 233.999 34.704C233.856 34.3612 233.783 33.9932 233.783 33.6215V28.1904C233.783 27.8188 233.856 27.4507 233.999 27.1079C234.143 26.7651 234.354 26.4545 234.619 26.1943C235.165 25.6613 235.898 25.3629 236.662 25.3629C237.425 25.3629 238.158 25.6613 238.704 26.1943C238.969 26.4545 239.18 26.7651 239.324 27.1079C239.467 27.4507 239.54 27.8188 239.54 28.1904V33.6215H239.493ZM237.683 28.1904C237.683 27.9119 237.59 27.6798 237.358 27.4477C237.159 27.2548 236.892 27.147 236.615 27.147C236.338 27.147 236.072 27.2548 235.872 27.4477C235.64 27.6798 235.547 27.9119 235.547 28.1904V33.6215C235.547 33.9001 235.64 34.1322 235.872 34.3643C236.072 34.5571 236.338 34.6649 236.615 34.6649C236.892 34.6649 237.159 34.5571 237.358 34.3643C237.59 34.1322 237.683 33.9001 237.683 33.6215V28.1904ZM242.882 25.5444V30.0472H244.831V25.5444H246.688V36.3139H244.831V31.6719H242.882V36.3139H241.025V25.5444H242.882ZM250.123 25.5444V30.0472H250.727C251.377 30.0472 251.516 29.6758 251.655 28.6546L251.794 27.262C251.79 26.9891 251.847 26.7187 251.959 26.4699C252.071 26.2212 252.237 26.0003 252.444 25.823C252.652 25.6416 252.896 25.5064 253.16 25.4264C253.425 25.3464 253.703 25.3233 253.976 25.3588H254.348V26.9835H254.115C253.791 26.9835 253.512 27.2156 253.466 28.0511L253.373 29.1652C253.326 29.6294 253.233 30.465 252.769 30.6971L254.394 36.2675H252.398L251.191 31.6255H250.123V36.2675H248.313V25.498H250.123V25.5444ZM256.715 25.5444L258.108 30.5578L258.433 28.3761L259.082 25.5444H260.939L259.129 32.5539C258.665 34.4107 258.386 36.3139 256.019 36.3139H255.369V34.6892H255.833C256.483 34.6892 256.808 34.3178 256.994 33.4359L257.04 33.0181L254.58 25.5909H256.715V25.5444ZM261.775 25.5444H264.096C266.974 25.5444 267.299 27.4012 267.299 28.7938V28.9795C267.299 30.9292 266.51 32.1361 264.189 32.1361H263.539V36.3139H261.682L261.775 25.5444ZM263.585 30.5578H264.281C265.349 30.5578 265.535 29.9079 265.535 28.9795V28.5617C265.535 27.5869 265.256 27.1227 264.142 27.1227H263.585V30.5114V30.5578ZM272.08 28.1904C272.08 27.9119 272.08 27.1227 271.152 27.1227C270.316 27.1227 270.223 27.8654 270.223 28.4225V33.3894C270.223 34.3178 270.455 34.7356 271.152 34.7356C271.569 34.7356 272.08 34.6428 272.08 33.5751V33.2037H273.937V33.668C273.937 35.3855 273.008 36.4532 271.105 36.4532C270.771 36.4819 270.435 36.4433 270.116 36.3396C269.797 36.236 269.502 36.0694 269.248 35.8497C268.997 35.6206 268.796 35.3409 268.66 35.0289C268.524 34.7169 268.456 34.3797 268.459 34.0393V28.0047C268.455 27.6574 268.523 27.313 268.659 26.9934C268.795 26.6738 268.995 26.3858 269.248 26.1479C269.497 25.8958 269.793 25.696 270.12 25.5605C270.447 25.4249 270.798 25.3563 271.152 25.3588C271.502 25.3502 271.851 25.4115 272.178 25.539C272.505 25.6665 272.803 25.8577 273.055 26.1015C273.306 26.3411 273.505 26.6294 273.641 26.9486C273.776 27.2679 273.846 27.6114 273.844 27.9583V28.6546H272.126V28.1904H272.08ZM129.57 41.8843V52.7002H127.714V43.509H125.857V52.7002H124V41.9307L129.57 41.8843ZM132.959 41.8843V48.151L135.234 43.1376V41.9307H137.09V52.7466H135.234V46.387L132.913 51.4933V52.7466H131.102V41.9307L132.959 41.8843ZM142.568 52.7002L142.104 50.4256H140.108L139.644 52.7002H137.88L140.108 41.8843H142.15L144.332 52.7002H142.568ZM141.036 44.8552L140.247 48.8473H141.825L141.036 44.8552ZM146.978 41.8843V46.4335H148.974V41.8843H150.784V52.7002H148.928V48.0582H146.978V52.7002H145.168V41.8843H147.024H146.978ZM154.127 41.8843V48.151L156.448 43.1376V41.9307H158.304V52.7466H156.448V46.387L154.127 51.4933V52.7466H152.363V41.9307L154.219 41.8843H154.127ZM163.318 44.5302C163.318 44.2981 163.318 43.4626 162.436 43.4626C161.507 43.4626 161.507 44.2517 161.507 44.7623V49.7757C161.507 50.6577 161.74 51.0755 162.389 51.0755C162.854 51.0755 163.318 50.9826 163.318 49.9614V49.5436H165.128V50.0078C165.128 51.6789 164.2 52.793 162.343 52.793C162.006 52.8155 161.667 52.7695 161.348 52.6578C161.029 52.5462 160.736 52.3711 160.486 52.1431C160.24 51.9193 160.043 51.6471 159.907 51.3436C159.772 51.04 159.7 50.7117 159.697 50.3792V44.3446C159.687 44.0007 159.747 43.6583 159.875 43.3389C160.003 43.0194 160.195 42.7297 160.44 42.4878C160.694 42.2299 160.997 42.0269 161.333 41.8911C161.668 41.7554 162.028 41.6899 162.389 41.6986C162.737 41.6839 163.084 41.7379 163.41 41.8573C163.737 41.9768 164.037 42.1595 164.293 42.3949C164.543 42.6346 164.743 42.9228 164.878 43.2421C165.014 43.5613 165.083 43.9049 165.082 44.2517V44.9944H163.318V44.5302ZM171.116 41.8843V43.6018H169.213V52.7002H167.356V43.6018H165.5V41.8843H171.07H171.116ZM177.29 50.0078C177.28 50.7425 176.979 51.4432 176.455 51.9575C175.908 52.4905 175.175 52.7889 174.412 52.7889C173.649 52.7889 172.916 52.4905 172.37 51.9575C172.104 51.6973 171.894 51.3867 171.75 51.0439C171.607 50.7011 171.533 50.333 171.534 49.9614V44.5767C171.527 44.2083 171.593 43.8422 171.729 43.4996C171.864 43.1569 172.066 42.8446 172.323 42.5806C172.87 42.0475 173.603 41.7492 174.366 41.7492C175.129 41.7492 175.862 42.0475 176.408 42.5806C176.674 42.8407 176.884 43.1514 177.028 43.4942C177.171 43.837 177.245 44.205 177.244 44.5767V49.9614L177.29 50.0078ZM175.48 44.5767C175.485 44.4364 175.459 44.2966 175.403 44.168C175.346 44.0393 175.262 43.9251 175.155 43.8339C174.956 43.6411 174.689 43.5333 174.412 43.5333C174.135 43.5333 173.869 43.6411 173.669 43.8339C173.563 43.9251 173.478 44.0393 173.422 44.168C173.365 44.2966 173.339 44.4364 173.345 44.5767V49.9614C173.345 50.2399 173.437 50.5184 173.669 50.7041C173.869 50.897 174.135 51.0048 174.412 51.0048C174.689 51.0048 174.956 50.897 175.155 50.7041C175.387 50.5184 175.48 50.2399 175.48 49.9614V44.5767ZM181.19 41.8843C183.186 41.8843 184.068 42.8127 184.068 44.5767C184.068 45.7836 184.068 46.5263 183 47.0834C183.389 47.2345 183.716 47.5125 183.928 47.8725C184.114 48.2439 184.207 48.6616 184.114 49.0794V49.8221C184.114 50.7505 183.975 52.6538 181.236 52.6538H178.729V41.8379L181.19 41.8843ZM180.54 46.2478H181.236C182.164 46.2478 182.257 45.6443 182.257 45.0873V44.4374C182.257 43.9732 181.979 43.509 181.097 43.509H180.632L180.54 46.2942V46.2478ZM180.54 51.0755H181.143C181.793 51.0755 182.304 50.7041 182.304 49.6829V49.3115C182.304 48.3831 181.979 47.8725 181.236 47.8725H180.586V51.0755H180.54ZM187.317 50.7505V52.6073L185.321 54.3249V50.7505H187.317ZM192.934 41.8843V46.4335H193.537C194.141 46.4335 194.326 46.1085 194.466 45.0409L194.605 43.6483C194.608 43.3832 194.667 43.1218 194.779 42.8816C194.891 42.6414 195.053 42.428 195.255 42.2557C195.463 42.0743 195.707 41.9391 195.971 41.8591C196.235 41.7791 196.513 41.756 196.787 41.7915H197.112V43.3697H196.88C196.555 43.3697 196.276 43.6483 196.23 44.4374L196.137 45.5515C196.09 46.0157 195.998 46.8512 195.533 47.0834L197.158 52.6538H195.162L193.955 48.0118H192.887V52.6538H191.077V41.8379L192.934 41.8843ZM203.239 50.0078C203.228 50.3749 203.144 50.7361 202.993 51.0707C202.841 51.4053 202.625 51.7067 202.357 51.9575C201.811 52.4905 201.078 52.7889 200.315 52.7889C199.551 52.7889 198.818 52.4905 198.272 51.9575C198.007 51.6973 197.796 51.3867 197.653 51.0439C197.509 50.7011 197.436 50.333 197.437 49.9614V44.5767C197.436 44.205 197.509 43.837 197.653 43.4942C197.796 43.1514 198.007 42.8407 198.272 42.5806C198.818 42.0475 199.551 41.7492 200.315 41.7492C201.078 41.7492 201.811 42.0475 202.357 42.5806C202.631 42.8368 202.85 43.1457 203.002 43.4887C203.153 43.8317 203.234 44.2017 203.239 44.5767V49.9614V50.0078ZM201.382 44.5767C201.382 44.2982 201.289 44.0196 201.104 43.8339C201.004 43.7315 200.885 43.65 200.754 43.5944C200.622 43.5388 200.481 43.5101 200.338 43.5101C200.195 43.5101 200.054 43.5388 199.922 43.5944C199.79 43.65 199.671 43.7315 199.572 43.8339C199.386 44.0196 199.247 44.2982 199.247 44.5767V49.9614C199.247 50.2399 199.386 50.5184 199.572 50.7041C199.671 50.8066 199.79 50.8881 199.922 50.9437C200.054 50.9993 200.195 51.028 200.338 51.028C200.481 51.028 200.622 50.9993 200.754 50.9437C200.885 50.8881 201.004 50.8066 201.104 50.7041C201.289 50.5184 201.382 50.2399 201.382 49.9614V44.5767ZM204.678 41.8843H206.535L208.577 47.594H208.67L210.573 41.8843H212.43V52.7002H210.573V46.2942H210.481L208.995 50.797H208.067L206.628 46.2942H206.535V52.6538H204.678V41.8843ZM219.486 41.8843V52.7002H217.676V43.509H215.819V52.7002H213.962V41.9307L219.533 41.8843H219.486ZM226.728 50.0078C226.717 50.7425 226.417 51.4432 225.892 51.9575C225.346 52.4905 224.613 52.7889 223.85 52.7889C223.086 52.7889 222.353 52.4905 221.807 51.9575C221.542 51.6973 221.331 51.3867 221.188 51.0439C221.044 50.7011 220.971 50.333 220.972 49.9614V44.5767C220.971 44.205 221.044 43.837 221.188 43.4942C221.331 43.1514 221.542 42.8407 221.807 42.5806C222.353 42.0475 223.086 41.7492 223.85 41.7492C224.613 41.7492 225.346 42.0475 225.892 42.5806C226.157 42.8407 226.368 43.1514 226.512 43.4942C226.655 43.837 226.729 44.205 226.728 44.5767V49.9614V50.0078ZM224.917 44.5767C224.923 44.4364 224.896 44.2966 224.84 44.168C224.784 44.0393 224.699 43.9251 224.592 43.8339C224.393 43.6411 224.127 43.5333 223.85 43.5333C223.572 43.5333 223.306 43.6411 223.107 43.8339C223 43.9251 222.915 44.0393 222.859 44.168C222.803 44.2966 222.776 44.4364 222.782 44.5767V49.9614C222.782 50.2399 222.875 50.5184 223.107 50.7041C223.306 50.897 223.572 51.0048 223.85 51.0048C224.127 51.0048 224.393 50.897 224.592 50.7041C224.824 50.5184 224.917 50.2399 224.917 49.9614V44.5767ZM227.702 44.2981C227.707 43.9479 227.783 43.6023 227.927 43.2828C228.071 42.9634 228.279 42.677 228.538 42.4413C228.796 42.1919 229.101 41.9974 229.437 41.8697C229.772 41.742 230.129 41.6838 230.488 41.6986C230.835 41.6813 231.183 41.7341 231.51 41.8537C231.837 41.9733 232.136 42.1573 232.391 42.3949C232.646 42.6311 232.849 42.9187 232.985 43.2387C233.121 43.5588 233.187 43.904 233.18 44.2517V44.9944C233.232 45.4095 233.157 45.8305 232.967 46.2029C232.777 46.5754 232.479 46.8821 232.112 47.0834C232.471 47.2688 232.766 47.559 232.957 47.9154C233.147 48.2718 233.225 48.6777 233.18 49.0794V50.1935C233.207 50.553 233.154 50.914 233.026 51.2509C232.897 51.5879 232.696 51.8924 232.437 52.1431C232.168 52.4013 231.846 52.5974 231.493 52.7177C231.14 52.838 230.765 52.8795 230.395 52.8394C230.061 52.8682 229.724 52.8296 229.405 52.7259C229.086 52.6223 228.791 52.4557 228.538 52.236C228.284 52.0163 228.078 51.746 227.934 51.4422C227.79 51.1385 227.711 50.808 227.702 50.472V49.5436H229.466V50.1471C229.45 50.2732 229.462 50.4014 229.502 50.5221C229.542 50.6427 229.609 50.7526 229.699 50.8434C229.789 50.9357 229.897 51.0081 230.017 51.0561C230.137 51.104 230.266 51.1265 230.395 51.1219C231.23 51.1219 231.323 50.3328 231.323 49.915V49.1723C231.323 48.7545 231.323 47.8725 230.163 47.8725H229.606V46.2478H230.07C230.231 46.2554 230.392 46.2305 230.544 46.1747C230.695 46.1189 230.834 46.0333 230.952 45.9228C231.067 45.816 231.159 45.6868 231.223 45.5432C231.287 45.3996 231.321 45.2445 231.323 45.0873V44.4374C231.34 44.3113 231.328 44.1831 231.288 44.0624C231.247 43.9417 231.18 43.8318 231.091 43.7411C231.003 43.6464 230.894 43.5723 230.774 43.5242C230.654 43.476 230.524 43.455 230.395 43.4626C229.606 43.4626 229.466 44.066 229.466 44.5302V44.9944H227.656L227.702 44.2981ZM236.383 41.8843V48.151L238.704 43.1376V41.9307H240.561V52.7466H238.704V46.387L236.383 51.4933V52.7466H234.573V41.9307L236.429 41.8843H236.383ZM247.06 41.8843V43.6018H245.203V52.7002H243.346V43.6018H241.489V41.8843H247.06ZM253.28 50.0078C253.269 50.7425 252.969 51.4432 252.444 51.9575C251.898 52.4905 251.165 52.7889 250.402 52.7889C249.639 52.7889 248.906 52.4905 248.359 51.9575C248.086 51.7013 247.866 51.3924 247.715 51.0494C247.563 50.7064 247.482 50.3363 247.477 49.9614V44.5767C247.482 44.2017 247.563 43.8317 247.715 43.4887C247.866 43.1457 248.086 42.8368 248.359 42.5806C248.906 42.0475 249.639 41.7492 250.402 41.7492C251.165 41.7492 251.898 42.0475 252.444 42.5806C252.71 42.8407 252.92 43.1514 253.064 43.4942C253.207 43.837 253.281 44.205 253.28 44.5767V49.9614V50.0078ZM251.423 44.5767C251.423 44.2982 251.33 44.0196 251.145 43.8339C251.045 43.7315 250.926 43.65 250.794 43.5944C250.663 43.5388 250.521 43.5101 250.379 43.5101C250.236 43.5101 250.094 43.5388 249.963 43.5944C249.831 43.65 249.712 43.7315 249.613 43.8339C249.427 44.0196 249.334 44.2982 249.334 44.5767V49.9614C249.334 50.2399 249.427 50.5184 249.613 50.7041C249.712 50.8066 249.831 50.8881 249.963 50.9437C250.094 50.9993 250.236 51.028 250.379 51.028C250.521 51.028 250.663 50.9993 250.794 50.9437C250.926 50.8881 251.045 50.8066 251.145 50.7041C251.33 50.5184 251.47 50.2399 251.47 49.9614V44.5767H251.423ZM254.719 41.8843H257.086C259.964 41.8843 260.289 43.7411 260.289 45.1337V45.3658C260.289 47.269 259.5 48.5224 257.179 48.5224H256.529V52.7002H254.673L254.719 41.8843ZM256.576 46.8977H257.318C258.34 46.8977 258.525 46.2478 258.525 45.3658V44.9016C258.525 43.9732 258.247 43.509 257.133 43.509H256.576V46.8977ZM267.113 50.0078C267.103 50.7425 266.802 51.4432 266.278 51.9575C265.731 52.4905 264.998 52.7889 264.235 52.7889C263.472 52.7889 262.739 52.4905 262.193 51.9575C261.927 51.6973 261.717 51.3867 261.573 51.0439C261.43 50.7011 261.356 50.333 261.357 49.9614V44.5767C261.356 44.205 261.43 43.837 261.573 43.4942C261.717 43.1514 261.927 42.8407 262.193 42.5806C262.739 42.0475 263.472 41.7492 264.235 41.7492C264.998 41.7492 265.731 42.0475 266.278 42.5806C266.543 42.8407 266.754 43.1514 266.897 43.4942C267.041 43.837 267.114 44.205 267.113 44.5767V49.9614V50.0078ZM265.303 44.5767C265.303 44.2982 265.21 44.0196 265.024 43.8339C264.925 43.7315 264.806 43.65 264.674 43.5944C264.542 43.5388 264.401 43.5101 264.258 43.5101C264.115 43.5101 263.974 43.5388 263.842 43.5944C263.711 43.65 263.592 43.7315 263.492 43.8339C263.386 43.9251 263.301 44.0393 263.245 44.168C263.188 44.2966 263.162 44.4364 263.167 44.5767V49.9614C263.167 50.2399 263.26 50.5184 263.492 50.7041C263.592 50.8066 263.711 50.8881 263.842 50.9437C263.974 50.9993 264.115 51.028 264.258 51.028C264.401 51.028 264.542 50.9993 264.674 50.9437C264.806 50.8881 264.925 50.8066 265.024 50.7041C265.21 50.5184 265.303 50.2399 265.303 49.9614V44.5767ZM271.059 41.8843C273.008 41.8843 273.937 42.8127 273.937 44.5767C273.937 45.7836 273.937 46.5263 272.869 47.0834C273.259 47.2345 273.586 47.5125 273.798 47.8725C273.983 48.2439 274.03 48.6616 273.983 49.0794V49.8221C273.983 50.7505 273.844 52.6538 271.105 52.6538H268.599V41.8379L271.059 41.8843ZM270.409 46.2478H271.059C271.987 46.2478 272.08 45.6443 272.08 45.0873V44.4374C272.08 43.9732 271.848 43.509 270.966 43.509H270.409V46.2942V46.2478ZM270.409 51.0755H270.966C271.662 51.0755 272.173 50.7041 272.173 49.6829V49.3115C272.173 48.3831 271.848 47.8725 271.059 47.8725H270.409V51.0755ZM125.857 58.2242V64.4909L128.178 59.4775V58.2242H129.988V69.04H128.131V62.7269L125.857 67.8331V69.04H124.046V58.2242H125.857ZM141.408 67.4618V70.7112H139.69V69.04H135.837V70.6647H134.12V67.4153H134.955C136.069 64.8158 135.884 61.9378 135.884 58.8276V58.2242H140.526V67.4153H141.408V67.4618ZM137.601 59.8953V60.5916C137.601 62.8662 137.508 65.9299 136.719 67.5546H138.669V59.8953H137.601ZM144.007 58.2242V64.4909L146.282 59.4775V58.2242H148.092V69.04H146.235V62.7269L143.961 67.8331V69.04H142.15V58.2242H144.007ZM149.67 58.2242H151.991C154.869 58.2242 155.194 60.1274 155.194 61.4736V61.7057C155.194 63.6553 154.405 64.8622 152.131 64.8622H151.434V69.04H149.577L149.67 58.2242ZM151.481 63.2375H152.223C153.245 63.2375 153.43 62.6341 153.43 61.7057V61.2879C153.43 60.3131 153.152 59.8489 152.038 59.8489H151.434V63.2375H151.481ZM158.212 58.2242V64.4909L160.533 59.4775V58.2242H162.297V69.04H160.486V62.7269L158.165 67.8331V69.04H156.401V58.2242H158.212ZM167.356 62.8198V58.2706H169.213V62.8198H169.538C169.909 62.8198 170.327 62.8198 170.466 61.5664L170.606 60.3131C170.791 58.7348 171.488 58.1313 173.066 58.1313H173.252V59.756H173.066C172.695 59.756 172.323 59.8489 172.23 60.8237L172.138 61.8914C172.138 62.402 171.906 63.284 171.488 63.5625L173.066 69.04H171.116L169.863 64.398H169.167V69.04H167.356V64.398H166.66L165.453 69.04H163.457L165.035 63.5625C164.571 63.284 164.432 62.402 164.385 61.8914L164.293 60.8237C164.2 59.8953 163.828 59.756 163.457 59.756H163.271V58.1313H163.457C165.035 58.1313 165.778 58.6884 165.917 60.3131L166.057 61.52C166.196 62.7733 166.614 62.8198 166.985 62.8198H167.356ZM174.18 58.2242H178.822V59.9417H176.037V62.7733H178.497V64.398H176.037V67.3225H178.915V69.04H174.18V58.2242ZM180.215 58.2242H182.536C185.414 58.2242 185.739 60.1274 185.739 61.4736V61.7057C185.739 63.6553 184.903 64.8622 182.629 64.8622H181.932V69.04H180.122L180.168 58.2242H180.215ZM181.979 63.2375H182.721C183.789 63.2375 183.928 62.6341 183.928 61.7057V61.2879C183.928 60.3131 183.696 59.8489 182.536 59.8489H181.979V63.2375ZM192.516 66.3477C192.511 66.7226 192.43 67.0927 192.279 67.4357C192.127 67.7787 191.908 68.0875 191.634 68.3437C191.081 68.8614 190.349 69.1443 189.592 69.1329C188.835 69.1395 188.105 68.8572 187.549 68.3437C187.284 68.0836 187.073 67.773 186.93 67.4302C186.786 67.0874 186.713 66.7193 186.714 66.3477V60.9165C186.713 60.5449 186.786 60.1768 186.93 59.834C187.073 59.4912 187.284 59.1806 187.549 58.9205C188.095 58.3859 188.828 58.086 189.592 58.0849C190.354 58.0909 191.086 58.39 191.634 58.9205C191.908 59.1767 192.127 59.4855 192.279 59.8285C192.43 60.1715 192.511 60.5416 192.516 60.9165V66.3477ZM190.659 60.9165C190.659 60.638 190.566 60.4059 190.381 60.1738C190.281 60.0713 190.162 59.9899 190.031 59.9342C189.899 59.8786 189.758 59.85 189.615 59.85C189.472 59.85 189.331 59.8786 189.199 59.9342C189.067 59.9899 188.948 60.0713 188.849 60.1738C188.663 60.4059 188.524 60.638 188.524 60.9165V66.3477C188.524 66.6262 188.663 66.8583 188.849 67.0904C188.948 67.1929 189.067 67.2743 189.199 67.33C189.331 67.3856 189.472 67.4143 189.615 67.4143C189.758 67.4143 189.899 67.3856 190.031 67.33C190.162 67.2743 190.281 67.1929 190.381 67.0904C190.566 66.8583 190.706 66.6262 190.706 66.3477V60.9165H190.659ZM196.415 58.2242C198.365 58.2242 199.293 59.199 199.293 60.9165C199.293 62.1699 199.293 62.9126 198.226 63.4232C198.622 63.5862 198.95 63.8814 199.154 64.2588C199.34 64.5837 199.433 65.0015 199.34 65.4193V66.2084C199.34 67.0904 199.201 68.9936 196.462 68.9936H193.955V58.2242H196.415ZM195.765 62.6341H196.462C197.39 62.6341 197.483 62.0306 197.483 61.4736V60.8237C197.483 60.3595 197.204 59.8953 196.322 59.8953H195.765V62.6341ZM195.765 67.4153H196.415C197.065 67.4153 197.576 67.0904 197.576 66.0227V65.6514C197.576 64.723 197.297 64.2588 196.508 64.2588H195.858L195.765 67.4153ZM125.857 74.6105V80.8772L128.178 75.8174V74.6105H129.988V85.4263H128.131V79.0204L125.857 84.1266V85.3799H124.046V74.6105H125.857ZM131.566 74.6105H133.423L135.419 80.3201H135.512L137.508 74.6105H139.319V85.4263H137.462V79.0204H137.415L135.93 83.5695H135.002L133.47 79.0204H133.377V85.3799H131.613V74.6105H131.566ZM140.758 74.6105H145.4V76.328H142.614V79.1132H145.075V80.7843H142.614V83.6624H145.493V85.3799H140.85L140.758 74.6105ZM148.556 74.6105V79.1596H150.552V74.6105H152.363V85.4263H150.506V80.7843H148.556V85.4263H146.792V74.6105H148.603H148.556ZM155.751 74.6105V80.8772L158.026 75.8174V74.6105H159.883V85.4263H158.026V79.0204L155.705 84.1266V85.3799H153.895V74.6105H155.751ZM168.424 77.2564C168.424 76.9779 168.424 76.1887 167.542 76.1887C166.66 76.1887 166.614 76.9779 166.614 77.4885V82.4554C166.614 83.3838 166.846 83.848 167.496 83.848C167.96 83.848 168.424 83.7088 168.424 82.6411V82.3162H170.234V82.7804C170.234 84.4515 169.306 85.5656 167.449 85.5656C167.112 85.5881 166.773 85.5421 166.454 85.4304C166.135 85.3187 165.842 85.1437 165.592 84.9157C165.341 84.6866 165.14 84.4069 165.004 84.0949C164.868 83.7829 164.8 83.4457 164.803 83.1053V77.1171C164.793 76.7732 164.854 76.4309 164.981 76.1115C165.109 75.792 165.301 75.5023 165.546 75.2603C165.8 75.0025 166.104 74.7995 166.439 74.6637C166.774 74.528 167.134 74.4625 167.496 74.4712C167.843 74.4565 168.19 74.5104 168.517 74.6299C168.843 74.7494 169.143 74.9321 169.399 75.1675C169.65 75.4072 169.849 75.6954 169.985 76.0146C170.12 76.3339 170.189 76.6774 170.188 77.0243V77.767H168.424V77.3028V77.2564ZM173.205 83.4767V85.4263H171.209V83.4303H173.205V83.4767ZM177.012 74.6105C179.008 74.6105 179.89 75.5389 179.89 77.3028C179.89 78.5097 179.89 79.2525 178.869 79.8095C179.258 79.9606 179.585 80.2387 179.797 80.5986C179.983 80.97 180.029 81.3878 179.983 81.7591V82.5483C179.983 83.4767 179.843 85.3335 177.058 85.3335H174.644V74.6105H177.058H177.012ZM176.408 78.9739H177.058C177.987 78.9739 178.079 78.3705 178.079 77.8134V77.1636C178.079 76.6994 177.847 76.2352 176.919 76.2352H176.408V78.9739ZM176.408 83.8016H176.965C177.615 83.8016 178.172 83.4303 178.172 82.409V82.0377C178.172 81.1093 177.847 80.5986 177.058 80.5986H176.408V83.8016ZM183.139 83.4767V85.4263H181.19V83.4303H183.139V83.4767ZM188.06 74.6105H190.427C193.259 74.6105 193.584 76.4673 193.584 77.8599V78.092C193.584 79.9952 192.795 81.2485 190.52 81.2485H189.824V85.4263H187.967L188.06 74.6105ZM189.917 79.6238H190.613C191.68 79.6238 191.82 78.9739 191.82 78.092V77.6278C191.82 76.6994 191.588 76.2352 190.427 76.2352H189.87V79.6238H189.917ZM198.086 85.4263L197.622 83.1517H195.673L195.208 85.4263H193.444L195.626 74.6105H197.669L199.85 85.4263H198.086ZM196.647 77.5813L195.858 81.527H197.344L196.647 77.5813ZM202.218 74.6105L203.378 77.7206L204.492 74.6105H206.535L204.307 79.7167L206.674 85.4263H204.817L203.378 81.7591L202.032 85.4263H200.036L202.404 79.7167L200.315 74.6105H202.218ZM207.603 74.6105H209.459L211.502 80.3201H211.548L213.498 74.6105H215.308V85.4263H213.451V79.0204H213.405L211.92 83.5695H210.991L209.506 79.0204H209.413V85.3799H207.603V74.6105ZM220.832 85.4263L220.368 83.1517H218.372L217.908 85.4263H216.19L218.372 74.6105H220.414L222.596 85.4263H220.832ZM219.347 77.5813L218.558 81.527H220.136L219.347 77.5813ZM225.242 74.6105V79.1596H227.238V74.6105H229.095V85.4263H227.238V80.7843H225.289V85.4263H223.432V74.6105H225.289H225.242ZM232.437 74.6105V80.8772L234.758 75.8174V74.6105H236.569V85.4263H234.712V79.0204L232.437 84.1266V85.3799H230.627V74.6105H232.484H232.437ZM239.957 74.6105V79.1596H241.907V74.6105H243.764V85.4263H241.907V80.7843H239.957V85.4263H238.101V74.6105H239.957ZM250.959 82.6875C250.96 83.0592 250.886 83.4272 250.743 83.77C250.599 84.1129 250.389 84.4235 250.123 84.6836C249.855 84.9504 249.536 85.1615 249.185 85.3049C248.835 85.4483 248.46 85.5211 248.081 85.5192C247.318 85.5132 246.587 85.214 246.038 84.6836C245.773 84.4235 245.562 84.1129 245.419 83.77C245.275 83.4272 245.202 83.0592 245.203 82.6875V77.3028C245.202 76.9312 245.275 76.5631 245.419 76.2203C245.562 75.8775 245.773 75.5669 246.038 75.3068C246.584 74.7722 247.317 74.4723 248.081 74.4712C248.844 74.4771 249.575 74.7763 250.123 75.3068C250.389 75.5669 250.599 75.8775 250.743 76.2203C250.886 76.5631 250.96 76.9312 250.959 77.3028V82.6875ZM249.149 77.3028C249.154 77.1625 249.128 77.0228 249.071 76.8941C249.015 76.7655 248.93 76.6513 248.824 76.5601C248.624 76.3672 248.358 76.2594 248.081 76.2594C247.804 76.2594 247.537 76.3672 247.338 76.5601C247.231 76.6513 247.147 76.7655 247.09 76.8941C247.034 77.0228 247.008 77.1625 247.013 77.3028V82.6875C247.013 82.9661 247.106 83.2446 247.338 83.4303C247.537 83.6231 247.804 83.7309 248.081 83.7309C248.358 83.7309 248.624 83.6231 248.824 83.4303C249.056 83.2446 249.149 82.9661 249.149 82.6875V77.3028ZM254.951 74.6105C256.901 74.6105 257.783 75.5389 257.783 77.3028C257.783 78.5097 257.783 79.2525 256.761 79.8095C257.151 79.9606 257.478 80.2387 257.69 80.5986C257.876 80.97 257.922 81.3878 257.876 81.7591V82.5483C257.876 83.4767 257.736 85.3335 254.951 85.3335H252.491V74.6105H254.905H254.951ZM254.301 78.9739H254.905C255.833 78.9739 255.972 78.3705 255.972 77.8134V77.1636C255.972 76.6994 255.694 76.2352 254.812 76.2352H254.255V78.9739H254.301ZM254.301 83.8016H254.858C255.508 83.8016 256.065 83.4303 256.065 82.409V82.0377C256.065 81.1093 255.74 80.5986 254.951 80.5986H254.301V83.8016ZM263.167 85.4263L262.703 83.1517H260.754L260.289 85.4263H258.525L260.707 74.6105H262.75L264.931 85.4263H263.167ZM261.728 77.5813L260.939 81.527H262.425L261.728 77.5813Z" fill="#1D1D1B"/>
</svg>
