<svg width="109" height="109" viewBox="0 0 109 109" fill="none" xmlns="http://www.w3.org/2000/svg">
<rect width="109" height="108.562" fill="#D60F3C"/>
<path d="M65.2902 82.4692H58.5078L25.6529 26.0961H32.4352L65.2902 82.4692ZM97 40.1894H46.5285L30.057 12.135C30.057 12.135 42.6529 11.1221 49.8756 14.6454C57.1865 18.1687 58.6839 21.4278 74.8912 23.2775C87.1347 24.6868 92.9482 26.8449 95.5026 35.0806L97 40.1894ZM51.1969 82.4692C51.1969 90.2645 42.3886 96.5625 31.5984 96.5625C20.7642 96.5625 12 90.2645 12 82.4692C12 74.6739 20.8083 68.3759 31.5984 68.3759C42.4326 68.3759 51.1969 74.6739 51.1969 82.4692Z" fill="white"/>
</svg>
