<svg width="182" height="158" viewBox="0 0 182 158" fill="none" xmlns="http://www.w3.org/2000/svg">
<path d="M43.4536 64.5146H39.4894V75.1261H43.4536V64.5146ZM50.2667 64.5146H46.3175V75.1261H50.2667V64.5146ZM57.0949 64.5146H53.1306V75.1261H57.0949V64.5146ZM64.0587 64.5146H60.0944V75.1261H64.0587V64.5146ZM70.8717 64.5146H66.6513V75.1261H70.8717V64.5146ZM77.6999 64.5146H73.4643V75.1261H77.6848V64.5146H77.6999ZM84.3773 64.5146H80.4131V75.1261H84.3773V64.5146ZM91.2055 64.5146H87.2412V75.1261H91.2055V64.5146ZM98.0185 64.5146H94.0694V75.1261H98.0185V64.5146ZM104.982 64.5146H101.018V75.1261H104.982V64.5146ZM111.81 64.5146H107.575V75.1261H111.795V64.5146H111.81ZM118.624 64.5146H114.373V75.1261H118.593V64.5146H118.624ZM125.301 64.5146H121.352V75.1261H125.301V64.5146ZM132.129 64.5146H128.165V75.1261H132.129V64.5146ZM138.942 64.5146H134.993V75.1261H138.942V64.5146ZM145.906 64.5146H141.942V75.1261H145.906V64.5146ZM43.4536 76.3319H39.4894V80.5072H43.4536V76.3319ZM50.2667 76.3319H46.3175V80.5072H50.2667V76.3319ZM57.0949 76.3319H53.1306V80.5072H57.0949V76.3319ZM64.0587 76.3319H60.0944V80.5072H64.0587V76.3319ZM66.6362 76.3319H70.8717V80.6278H66.6513V76.3319H66.6362ZM73.4643 76.4676L77.6848 76.3319V80.6278H73.4643V76.4676ZM84.3773 76.3319H80.4131V80.5072H84.3773V76.3319ZM91.2055 76.3319H87.2412V80.5072H91.2055V76.3319ZM98.0185 76.3319H94.0694V80.5072H98.0185V76.3319ZM104.982 76.3319H101.018V80.5072H104.982V76.3319ZM107.575 76.3319L111.795 76.4827V80.6278H107.575V76.3319ZM114.388 76.4676L118.608 76.3319V80.6278H114.388V76.4676ZM125.301 76.3319H121.352V80.5072H125.301V76.3319ZM132.129 76.3319H128.165V80.5072H132.129V76.3319ZM138.942 76.3319H134.993V80.5072H138.942V76.3319ZM145.906 76.3319H141.942V80.5072H145.906V76.3319ZM52.7236 56.1791H49.1814V57.6713H52.7236V56.1942V56.1791ZM58.3158 56.1791H54.3817V57.6713H58.3309V56.1942L58.3158 56.1791ZM63.9079 56.1791H59.9588V57.6713H63.9079V56.1942V56.1791ZM69.0931 56.1791H65.5509V57.6713H69.0931V56.1942V56.1791ZM96.6619 56.1791H92.6977V57.6713H96.6619V56.1942V56.1791ZM91.0547 56.1791H87.1056V57.6713H91.0547V56.1942V56.1791ZM85.4626 56.1791H81.9204V57.6713H85.4626V56.1942V56.1791ZM74.6853 56.1791H70.7361V57.6713H74.6853V56.1942V56.1791ZM80.2774 56.1791H76.3282V57.6713H80.2774V56.1942V56.1791ZM129.401 56.1791H125.437V57.6713H129.401V56.1942V56.1791ZM123.809 56.1791H119.844V57.6713H123.809V56.1942V56.1791ZM118.202 56.1791H114.674V57.6713H118.217V56.1942L118.202 56.1791ZM113.016 56.1791H109.067V57.6713H113.031V56.1942L113.016 56.1791ZM107.439 56.1791H103.475V57.6713H107.439V56.1942V56.1791ZM101.968 56.1791H98.2899V57.6713H101.968V56.1942V56.1791ZM52.7236 51.0844H49.1814V54.0387H52.7236V51.0844ZM134.571 56.1791H131.029V57.6713H134.586V56.1942L134.571 56.1791ZM58.3158 51.0844H54.3817V54.0387H58.3309V51.0844H58.3158ZM63.9079 51.0844H59.9588V54.0387H63.9079V51.0844ZM69.2288 51.0844H65.5509V54.0387H69.2288V51.0844ZM74.6853 51.0844H70.7361V54.0387H74.6853V51.0844ZM80.2774 51.0844H76.3282V54.0387H80.2774V51.0844ZM85.4626 51.0844H81.9204V54.0387H85.4626V51.0844ZM91.0547 51.0844H87.1056V54.0387H91.0547V51.0844ZM118.202 51.0844H114.674V54.0387H118.217V51.0844H118.202ZM113.016 51.0844H109.067V54.0387H113.031V51.0844H113.016ZM107.439 51.0844H103.475V54.0387H107.439V51.0844ZM101.968 51.0844H98.2899V54.0387H101.968V51.0844ZM96.6619 51.0844H92.6977V54.0387H96.6619V51.0844ZM134.571 51.0844H131.029V54.0387H134.586V51.0844H134.571ZM129.401 51.0844H125.437V54.0387H129.401V51.0844ZM123.809 51.0844H119.844V54.0387H123.809V51.0844ZM52.7236 45.5826H49.1814V48.537H52.7236V45.5826ZM58.3158 45.5826H54.3817V48.537H58.3309V45.5826H58.3158ZM63.9079 45.5826H59.9588V48.537H63.9079V45.5826ZM69.2288 45.5826H65.5509V48.537H69.2288V45.5826ZM74.6853 45.5826H70.7361V48.537H74.6853V45.5826ZM80.2774 45.5826H76.3282V48.537H80.2774V45.5826ZM85.4626 45.5826H81.9204V48.537H85.4626V45.5826ZM91.0547 45.5826H87.1056V48.537H91.0547V45.5826ZM118.202 45.5826H114.674V48.537H118.217V45.5826H118.202ZM113.016 45.5826H109.067V48.537H113.031V45.5826H113.016ZM107.439 45.5826H103.475V48.537H107.439V45.5826ZM101.968 45.5826H98.2899V48.537H101.968V45.5826ZM96.6619 45.5826H92.6977V48.537H96.6619V45.5826ZM134.571 45.5826H131.029V48.537H134.586V45.5826H134.571ZM129.401 45.5826H125.437V48.537H129.401V45.5826ZM123.809 45.5826H119.844V48.537H123.809V45.5826ZM52.7236 40.3372H49.1814V43.2915H52.7236V40.3372ZM58.3158 40.3372H54.3817V43.2915H58.3309V40.3372H58.3158ZM63.9079 40.3372H59.9588V43.2915H63.9079V40.3372ZM69.2288 40.3372H65.5509V43.2915H69.2288V40.3372ZM74.6853 40.3372H70.7361V43.2915H74.6853V40.3372ZM80.2774 40.3372H76.3282V43.2915H80.2774V40.3372ZM85.4626 40.3372H81.9204V43.2915H85.4626V40.3372ZM91.0547 40.3372H87.1056V43.2915H91.0547V40.3372ZM118.202 40.3372H114.674V43.2915H118.217V40.3372H118.202ZM113.016 40.3372H109.067V43.2915H113.031V40.3372H113.016ZM107.439 40.3372H103.475V43.2915H107.439V40.3372ZM101.968 40.3372H98.2899V43.2915H101.968V40.3372ZM96.6619 40.3372H92.6977V43.2915H96.6619V40.3372ZM134.571 40.3372H131.029V43.2915H134.586V40.3372H134.571ZM129.401 40.3372H125.437V43.2915H129.401V40.3372ZM123.809 40.3372H119.844V43.2915H123.809V40.3372ZM52.7236 34.9711H49.1814V37.9255H52.7236V34.9711ZM58.3158 34.9711H54.3817V37.9255H58.3309V34.9711H58.3158ZM63.9079 34.9711H59.9588V37.9255H63.9079V34.9711ZM69.2288 34.9711H65.5509V37.9255H69.2288V34.9711ZM74.6853 34.9711H70.7361V37.9255H74.6853V34.9711ZM80.2774 34.9711H76.3282V37.9255H80.2774V34.9711ZM85.4626 34.9711H81.9204V37.9255H85.4626V34.9711ZM91.0547 34.9711H87.1056V37.9255H91.0547V34.9711ZM118.202 34.9711H114.674V37.9255H118.217V34.9711H118.202ZM113.016 34.9711H109.067V37.9255H113.031V34.9711H113.016ZM107.439 34.9711H103.475V37.9255H107.439V34.9711ZM101.968 34.9711H98.2899V37.9255H101.968V34.9711ZM96.6619 34.9711H92.6977V37.9255H96.6619V34.9711ZM134.571 34.9711H131.029V37.9255H134.586V34.9711H134.571ZM129.401 34.9711H125.437V37.9255H129.401V34.9711ZM123.809 34.9711H119.844V37.9255H123.809V34.9711ZM52.7236 29.4543H49.1814V32.4087H52.7236V29.4543ZM58.3158 29.4543H54.3817V32.4087H58.3309V29.4543H58.3158ZM63.9079 29.4543H59.9588V32.4087H63.9079V29.4543ZM69.2288 29.4543H65.5509V32.4087H69.2288V29.4543ZM74.6853 29.4543H70.7361V32.4087H74.6853V29.4543ZM80.2774 29.4543H76.3282V32.4087H80.2774V29.4543ZM85.4626 29.4543H81.9204V32.4087H85.4626V29.4543ZM91.0547 29.4543H87.1056V32.4087H91.0547V29.4543ZM118.202 29.4543H114.674V32.4087H118.217V29.4543H118.202ZM113.016 29.4543H109.067V32.4087H113.031V29.4543H113.016ZM107.439 29.4543H103.475V32.4087H107.439V29.4543ZM101.968 29.4543H98.2899V32.4087H101.968V29.4543ZM96.6619 29.4543H92.6977V32.4087H96.6619V29.4543ZM134.571 29.4543H131.029V32.4087H134.586V29.4543H134.571ZM129.401 29.4543H125.437V32.4087H129.401V29.4543ZM123.809 29.4543H119.844V32.4087H123.809V29.4543Z" fill="black"/>
<path d="M175.163 81.2002V55.8773H173.505V57.0832H168.305V55.7567H160.09V57.0832H154.468V55.8773H153.232V58.4247L148.981 60.957H139.394V27.6452H140.751V19.6414H139.394V18.2999H121.578V16.9734H117.327V18.2999H94.3256V10.3111H91.311V4.83952H98.1693V0.709473H89.9393V10.5673H87.3317V18.5561H64.0285V17.2297H59.7779V18.5712H44.976L43.6195 19.8976V28.2934H44.976V22.8369H46.212V26.967H47.5837V22.8369H48.9554V26.967H50.6134V22.8369H51.563V26.967H53.206V22.8369H54.1556V26.967H55.8137V22.8369H57.1702V26.967H58.8283V22.8369H59.7779V26.967H61.436V22.8369H62.3856V26.967H64.0285V22.8369H65.3851V26.967H67.0432V22.8369H68.0079V26.967H69.6508V22.8369H70.6004V26.967H72.2585V22.8369H73.6151V26.967H75.2731V22.8369H76.2227V26.967H77.8808V22.8369H78.8304V26.967H80.4734V22.8369H81.83V26.967H83.488V22.8369H84.4527V26.967H86.0957V22.8369H87.0453V26.967H88.7033V22.8369H90.0599V26.967H91.718V22.8369H92.6676V26.967H94.3256V22.8369H95.2752V26.967H96.9182V22.8369H98.1542V26.967H99.7972V22.8369H100.747V26.967H102.405V22.8369H103.354V26.967H105.013V22.8369H106.369V26.967H108.027V22.8369H108.977V26.967H110.62V22.8369H111.72V26.967H113.363V22.8369H114.72V26.967H116.378V22.8369H117.327V26.967H118.985V22.8369H119.935V26.967H121.593V22.8369H122.814V26.967H124.472V22.8369H125.422V26.967H126.929V22.8369H128.014V26.967H129.672V22.8369H131.029V26.967H132.687V22.8369H133.636V26.967H135.295V22.8369H136.244V26.967H137.887V22.8369H139.244V27.9015H138.038V61.4845H135.023V58.6809H131.451V61.4845H129.793V58.6809H125.829V61.4845H124.171V58.6809H120.206V61.4845H118.563V58.6809H115.006V61.4845H113.348V58.6809H109.399V61.4845H107.741V58.6809H103.761V61.4845H102.118V58.6809H98.5612V61.4845H96.9031V58.6809H92.9389V61.4845H91.311V58.6809H87.3317V61.4845H85.6887V58.6809H82.1164V61.4845H80.4583V58.6809H76.4941V61.4845H74.8511V58.6809H70.8868V61.4845H69.2288V58.6809H65.6866V61.4845H64.0285V58.6809H60.0492V61.4845H58.4062V58.6809H54.442V61.4845H52.784V58.6809H49.2267V61.4845H46.212V28.0221H44.976L44.8404 61.4845H36.3542L32.2392 57.3545V56.013H31.0032V57.2188H25.3809V56.013H17.166V57.3545H11.9507V56.1486H10.3077V81.4716H0.721191V84.0039H181.599V81.4716L175.163 81.2002ZM47.5837 21.631H45.9407V19.8976H47.5988V21.631H47.5837ZM50.4627 21.631H48.8046V19.8976H50.4627V21.631ZM53.206 21.631H51.548V19.8976H53.206V21.631ZM55.8137 21.631H54.1556V19.8976H55.8137V21.631ZM58.6776 21.631H57.0346V19.8976H58.6926V21.631H58.6776ZM61.4209 21.631H59.7779V19.8976H61.436V21.631H61.4209ZM64.0285 21.631H62.3705V19.8976H64.0285V21.631ZM66.8924 21.631H65.2645V19.8976H66.9075V21.631H66.8924ZM68.0079 21.631V19.8976H69.6508V21.631H67.9928H68.0079ZM72.2434 21.631H70.6004V19.8976H72.2585V21.631H72.2434ZM75.1224 21.631H73.4794V19.8976H75.1375V21.631H75.1224ZM76.2227 21.631V19.8976H77.8808V21.631H76.2227ZM78.8304 21.631V19.8976H80.4734V21.631H78.8153H78.8304ZM83.3524 21.631H81.6943V19.8976H83.3524V21.631ZM85.96 21.631H84.302V19.8976H85.96V21.631ZM88.6883 21.631H87.0453V19.8976H88.7033V21.631H88.6883ZM91.5672 21.631H89.9243V19.8976H91.5823V21.631H91.5672ZM88.7033 17.3653V15.7827H92.6676V17.3804H88.6883L88.7033 17.3653ZM94.1749 21.631H92.5169V19.8976H94.1749V21.631ZM95.2752 21.631V19.8976H96.9182V21.631H95.2602H95.2752ZM99.7972 21.631H98.1391V19.8976H99.7972V21.631ZM102.39 21.631H100.747V19.8976H102.405V21.631H102.39ZM105.133 21.631H103.49V19.8976H105.148V21.631H105.133ZM108.012 21.631H106.384V19.8976H108.042V21.631H108.012ZM110.62 21.631H108.962V19.8976H110.62V21.631ZM113.363 21.631H111.705V19.8976H113.363V21.631ZM116.227 21.631H114.599V19.8976H116.242V21.631H116.227ZM118.835 21.631H117.192V19.8976H118.85V21.631H118.835ZM121.578 21.631H119.95V19.8976H121.608V21.631H121.578ZM124.457 21.631H122.814V19.8976H124.472V21.631H124.457ZM127.065 21.631H125.407V19.8976H127.065V21.631ZM129.808 21.631H128.15V19.8976H129.808V21.631ZM132.672 21.631H131.029V19.8976H132.687V21.631H132.672ZM135.279 21.631H133.636V19.8976H135.295V21.631H135.279ZM138.023 21.631H136.38V19.8976H138.038V21.631H138.023ZM28.5312 81.2002V62.6753H27.1746V81.2153H24.16V61.0625H25.3809V59.8566H17.166V61.2132H18.809V81.3208H15.9451V62.811H14.5584V81.351H12.1014V58.6658H31.1389V81.351L28.5312 81.2153V81.2002ZM148.845 81.2002H36.7612V62.6753H148.845V81.2153V81.2002ZM170.912 81.2002V62.6753H169.254V81.2153H166.662V61.0625H168.32V59.736H160.09V61.0625H161.446V81.2002H158.854V62.6753H157.075V81.2153H154.468V58.5302H173.52V81.2002H170.912ZM1.29397 98.3686H12.9003V112.733H10.0364V100.795H4.30861V112.748H1.29397V98.3837V98.3686ZM16.0355 98.3686H20.7987C22.5773 98.3686 23.8133 98.5043 24.3559 98.6399C25.1699 98.8962 25.8633 99.3031 26.4059 100.117C26.9485 100.78 27.2198 101.73 27.2198 102.936C27.2198 103.87 27.0691 104.549 26.6772 105.212C26.2702 105.89 25.9838 106.297 25.4412 106.689C24.9978 107.028 24.4819 107.261 23.9339 107.367C23.2556 107.503 22.1703 107.639 20.9494 107.639H19.0351V113.14H16.0205V98.3686H16.0355ZM18.8994 104.956H20.5273C21.7633 104.956 22.4416 104.805 22.8486 104.684C23.2556 104.534 23.542 104.277 23.8133 104.006C24.0846 103.735 24.0846 103.343 24.0846 102.936C24.0846 102.393 23.9339 101.986 23.6776 101.579C23.3913 101.187 22.9843 101.052 22.4416 100.916C22.0347 100.916 21.3564 100.78 20.256 100.78H18.8994V104.956ZM40.9967 112.869H37.8615L36.5049 109.523H30.6264L29.4055 112.733H26.2702L31.998 98.3686H35.1333L40.9967 112.869ZM35.6759 107.096L33.6259 101.73L31.576 107.096H35.6759ZM48.5032 98.3686C49.5884 98.3686 50.538 98.3686 51.0958 98.5042C51.6384 98.6399 52.181 98.7756 52.6031 99.0318C53.0824 99.3568 53.471 99.7986 53.7321 100.316C53.9932 100.833 54.1182 101.407 54.0953 101.986C54.0953 102.664 53.9446 103.343 53.5527 103.87C53.1809 104.413 52.6563 104.833 52.0454 105.076C52.995 105.347 53.6883 105.754 54.0953 106.433C54.4921 107.02 54.7263 107.701 54.7739 108.408C54.8216 109.115 54.681 109.822 54.3666 110.457C54.0953 111.121 53.6883 111.527 53.1306 111.934C52.588 112.341 51.9097 112.477 51.0958 112.598C50.538 112.598 49.4528 112.748 47.5385 112.748H42.504V98.3686H48.5032ZM45.6393 100.78V104.142H49.7241C50.2667 104.142 50.6888 103.87 50.9601 103.599C51.2276 103.313 51.3735 102.935 51.3671 102.544C51.3742 102.345 51.3419 102.147 51.2721 101.961C51.2022 101.774 51.0962 101.604 50.9601 101.459C50.6888 101.187 50.2667 101.052 49.8598 100.916H45.6393V100.78ZM45.6393 106.553V110.457H48.3524C49.4528 110.457 50.1311 110.457 50.4024 110.322C50.8244 110.186 51.2314 110.05 51.5027 109.779C51.774 109.523 51.9097 109.116 51.9097 108.573C51.9097 108.166 51.759 107.774 51.6384 107.503C51.4877 107.232 51.0958 106.96 50.6888 106.825C49.8421 106.61 48.9689 106.519 48.0962 106.553H45.6393ZM57.5019 98.3686H60.2301V107.91L66.2292 98.3686H69.2439V112.733H66.5005V103.358L60.6371 112.748H57.6375V98.3837H57.5019V98.3686ZM75.3786 112.869V100.916H71.0074V98.5042H82.6138V100.916H78.2425V112.869H75.3786ZM84.6487 112.869V98.3837H95.5616V100.795H87.6482V104.021H95.019V106.433H87.6482V110.337H95.8329V112.748H84.6487V112.899V112.869ZM99.2395 98.3686H109.489V112.733H106.475V100.795H102.103V106.975C102.103 108.724 102.103 109.93 101.968 110.744C101.832 111.407 101.561 111.95 101.154 112.357C100.747 112.748 99.9328 112.884 98.9682 112.884C98.5612 112.884 98.0186 112.884 97.0689 112.748V110.472H97.7472C98.4255 110.472 98.8325 110.337 98.9682 110.201C99.1189 110.065 99.2395 109.658 99.2395 108.995V98.3837V98.3686ZM115.609 98.3686V104.142H119.573C121.487 104.142 122.844 104.549 123.658 105.498C124.487 106.297 124.894 107.367 124.894 108.573C124.894 109.523 124.623 110.457 124.08 111.136C123.522 111.799 122.98 112.341 122.301 112.477C121.623 112.733 120.658 112.869 119.438 112.869H112.474V98.3837H115.609V98.3686ZM115.609 110.457H118.473C119.438 110.457 120.131 110.457 120.387 110.322C120.794 110.186 121.065 110.05 121.352 109.643C121.623 109.387 121.759 108.98 121.759 108.437C121.759 107.774 121.487 107.232 121.065 106.96C120.523 106.689 119.709 106.553 118.624 106.553H115.609V110.457ZM136.229 107.503L139.093 108.437C138.761 109.812 137.988 111.04 136.892 111.934C135.748 112.766 134.357 113.191 132.943 113.14C132.048 113.166 131.159 112.999 130.334 112.65C129.51 112.302 128.77 111.78 128.165 111.121C126.856 109.647 126.17 107.724 126.251 105.754C126.251 103.343 126.944 101.459 128.165 100.117C128.789 99.4445 129.551 98.9155 130.4 98.5668C131.248 98.218 132.162 98.0578 133.079 98.0973C133.878 98.0627 134.676 98.1875 135.426 98.4644C136.177 98.7413 136.865 99.1647 137.45 99.7101C138.128 100.388 138.671 101.187 138.957 102.393L136.078 103.071C135.943 102.257 135.536 101.715 134.993 101.323C134.402 100.88 133.682 100.641 132.943 100.645C131.843 100.645 131.029 101.052 130.351 101.851C129.672 102.664 129.401 103.87 129.401 105.619C129.401 107.503 129.672 108.709 130.351 109.523C131.029 110.322 131.858 110.729 132.943 110.729C133.757 110.729 134.45 110.457 134.993 110.05C135.536 109.387 135.943 108.573 136.214 107.488L136.229 107.503ZM144.399 112.869V100.916H140.028V98.5042H151.634V100.916H147.263V112.869H144.399ZM159.412 98.3686C160.497 98.3686 161.446 98.3686 162.004 98.5042C162.547 98.6399 163.089 98.7756 163.512 99.0318C163.903 99.3031 164.31 99.7101 164.597 100.238C164.868 100.78 165.004 101.323 165.004 101.986C165.004 102.664 164.853 103.343 164.461 103.87C164.089 104.413 163.565 104.833 162.954 105.076C163.903 105.347 164.597 105.754 165.004 106.433C165.399 107.02 165.632 107.702 165.68 108.409C165.728 109.115 165.588 109.822 165.275 110.457C165.004 111.121 164.597 111.527 164.039 111.934C163.496 112.341 162.818 112.477 162.004 112.598C161.446 112.598 160.361 112.748 158.447 112.748H153.397V98.3686H159.412ZM156.548 100.78V104.142H160.633C161.175 104.142 161.582 103.87 161.853 103.599C162.126 103.316 162.278 102.937 162.276 102.544C162.281 102.344 162.246 102.145 162.174 101.959C162.101 101.773 161.992 101.602 161.853 101.459C161.536 101.199 161.166 101.014 160.768 100.916H156.548V100.78ZM156.548 106.553V110.457H159.261C160.361 110.457 161.04 110.457 161.311 110.322C161.718 110.186 162.14 110.05 162.411 109.779C162.682 109.523 162.818 109.116 162.818 108.573C162.818 108.166 162.667 107.774 162.547 107.503C162.396 107.232 162.004 106.96 161.582 106.825C160.735 106.61 159.862 106.519 158.99 106.553H156.548ZM167.325 105.754C167.325 104.277 167.596 103.071 168.003 101.986C168.275 101.323 168.817 100.645 169.36 99.9814C170.003 99.3046 170.792 98.7832 171.667 98.4567C172.542 98.1303 173.48 98.0074 174.409 98.0973C175.366 98.0576 176.321 98.2166 177.214 98.5642C178.106 98.9118 178.917 99.4406 179.595 100.117C180.923 101.633 181.609 103.606 181.509 105.619C181.509 107.91 180.831 109.779 179.595 111.121C178.926 111.81 178.117 112.348 177.222 112.696C176.328 113.045 175.368 113.196 174.409 113.14C173.451 113.192 172.493 113.039 171.599 112.691C170.704 112.342 169.895 111.807 169.224 111.121C167.868 109.779 167.325 108.031 167.325 105.754ZM170.325 105.619C170.325 107.232 170.732 108.437 171.41 109.387C172.224 110.186 173.189 110.593 174.274 110.593C175.51 110.593 176.459 110.186 177.138 109.387C177.952 108.573 178.238 107.232 178.238 105.619C178.291 104.276 177.904 102.954 177.138 101.851C176.775 101.456 176.331 101.144 175.837 100.936C175.343 100.728 174.81 100.629 174.274 100.645C173.718 100.63 173.165 100.73 172.649 100.937C172.133 101.144 171.665 101.455 171.274 101.851C170.605 102.99 170.275 104.298 170.325 105.619ZM18.0855 133.7V119.185H22.8486C24.6273 119.185 25.8633 119.335 26.4059 119.456C27.2198 119.727 27.9132 120.134 28.4408 120.933C28.9985 121.611 29.2698 122.546 29.2698 123.752C29.3141 124.554 29.12 125.351 28.7121 126.043C28.3051 126.706 28.0338 127.098 27.4912 127.52C26.9485 127.912 26.5415 128.048 25.9838 128.183C25.3055 128.334 24.2203 128.455 22.9843 128.455H21.0851V133.7H18.0704H18.0855ZM21.0851 125.772H22.713C23.949 125.772 24.6273 125.621 25.0342 125.5C25.4412 125.365 25.7125 125.093 25.9838 124.822C26.2702 124.566 26.2702 124.159 26.2702 123.767C26.2702 123.224 26.1195 122.817 25.8482 122.41C25.5769 122.003 25.1699 121.868 24.6273 121.732C24.2203 121.732 23.542 121.611 22.4416 121.611H21.0851V125.772ZM31.169 126.571C31.169 125.093 31.4403 123.887 31.8624 122.802C32.1337 122.139 32.6763 121.476 33.219 120.797C33.8624 120.121 34.6514 119.599 35.5263 119.273C36.4012 118.946 37.339 118.823 38.2685 118.913C39.2254 118.874 40.1802 119.033 41.0726 119.38C41.965 119.728 42.7757 120.257 43.4537 120.933C44.6746 122.29 45.3679 124.023 45.3679 126.435C45.3679 128.726 44.6746 130.61 43.4537 131.952C42.2177 133.293 40.439 133.956 38.2685 133.956C37.3113 134.01 36.3537 133.859 35.4595 133.514C34.5653 133.168 33.7552 132.635 33.0833 131.952C31.7709 130.474 31.0845 128.545 31.169 126.571ZM34.1837 126.435C34.1837 128.048 34.5906 129.269 35.2689 130.203C36.0829 131.002 37.0325 131.409 38.1328 131.409C39.3537 131.409 40.3184 131.002 40.9967 130.203C41.8107 129.389 42.082 128.048 42.082 126.435C42.1389 125.094 41.758 123.772 40.9967 122.667C40.6338 122.272 40.1902 121.96 39.696 121.752C39.2019 121.544 38.6687 121.445 38.1328 121.461C36.8968 121.461 35.9472 121.868 35.1182 122.667C34.4489 123.806 34.1194 125.114 34.1686 126.435H34.1837ZM57.3662 128.319L60.2301 129.269C59.8987 130.636 59.1316 131.858 58.0445 132.751C56.9592 133.564 55.7232 133.956 54.0953 133.956C53.2017 133.984 52.3127 133.819 51.4883 133.473C50.6639 133.128 49.9235 132.609 49.3171 131.952C48.0048 130.474 47.3183 128.545 47.4028 126.571C47.4028 124.159 48.0962 122.275 49.3171 120.933C49.9409 120.261 50.7035 119.732 51.5519 119.383C52.4004 119.034 53.3145 118.874 54.231 118.913C55.0301 118.879 55.8282 119.004 56.5787 119.28C57.3291 119.557 58.017 119.981 58.6022 120.526C59.2805 121.204 59.808 122.003 60.0944 123.224L57.2305 123.887C57.0798 123.089 56.6879 122.531 56.1453 122.139C55.5522 121.701 54.8326 121.468 54.0953 121.476C52.995 121.476 52.181 121.868 51.5027 122.682C50.8244 123.481 50.538 124.701 50.538 126.45C50.538 128.319 50.8244 129.525 51.5027 130.339C52.181 131.138 53.01 131.545 54.0953 131.545C54.9093 131.545 55.6026 131.273 56.1453 130.866C56.6879 130.203 57.0949 129.389 57.3662 128.319ZM72.3791 128.319L75.243 129.269C74.9116 130.636 74.1444 131.858 73.0574 132.751C71.957 133.564 70.7361 133.956 69.0931 133.956C68.2021 133.982 67.3159 133.816 66.4943 133.47C65.6727 133.124 64.9347 132.607 64.33 131.952C63.0177 130.474 62.3312 128.545 62.4157 126.571C62.4157 124.159 63.094 122.275 64.33 120.933C64.9521 120.263 65.7122 119.735 66.5579 119.386C67.4036 119.037 68.3148 118.876 69.2288 118.913C70.028 118.879 70.826 119.004 71.5765 119.28C72.327 119.557 73.0148 119.981 73.6 120.526C74.2783 121.204 74.8209 122.003 75.1073 123.224L72.2434 123.887C72.0927 123.089 71.6857 122.531 71.1431 122.139C70.55 121.701 69.8304 121.468 69.0931 121.476C68.0079 121.476 67.1939 121.868 66.5005 122.682C65.8223 123.481 65.5509 124.701 65.5509 126.45C65.5509 128.319 65.8223 129.525 66.5005 130.339C67.1939 131.138 68.0079 131.545 69.0931 131.545C69.9222 131.545 70.6004 131.273 71.1431 130.866C71.8214 130.203 72.2284 129.389 72.3791 128.319ZM78.2425 119.185H80.9557V128.726L86.9699 119.185H89.9695V133.7H87.2412V124.294L81.3627 133.7H78.3782V119.185H78.2275H78.2425ZM93.2404 119.185H95.9686V128.726L101.968 119.185H104.982V133.7H102.254V124.294L96.3756 133.7H93.376V119.185H93.2404ZM100.747 115.688H102.103C102.043 116.494 101.708 117.255 101.154 117.843C100.867 118.125 100.524 118.342 100.148 118.483C99.771 118.623 99.3692 118.682 98.9682 118.657C98.5696 118.68 98.1707 118.62 97.7969 118.48C97.4231 118.339 97.0827 118.123 96.7976 117.843C96.2337 117.26 95.8923 116.497 95.8329 115.688H97.1895C97.1895 116.095 97.4759 116.502 97.7472 116.773C98.0186 117.044 98.4255 117.18 98.9682 117.18C99.5259 117.18 99.9329 117.029 100.204 116.773C100.382 116.656 100.527 116.494 100.622 116.304C100.717 116.113 100.76 115.9 100.747 115.688ZM117.538 128.319L120.402 129.269C120.067 130.638 119.294 131.86 118.202 132.751C117.116 133.564 115.895 133.956 114.252 133.956C113.359 133.984 112.47 133.819 111.645 133.473C110.821 133.128 110.081 132.609 109.474 131.952C108.167 130.472 107.486 128.543 107.575 126.571C107.575 124.159 108.253 122.275 109.474 120.933C110.098 120.261 110.861 119.732 111.709 119.383C112.557 119.034 113.472 118.874 114.388 118.913C115.187 118.879 115.985 119.004 116.736 119.28C117.486 119.557 118.174 119.981 118.759 120.526C119.438 121.204 119.98 122.003 120.267 123.224L117.403 123.887C117.252 123.089 116.845 122.531 116.302 122.139C115.709 121.701 114.99 121.468 114.252 121.476C113.756 121.459 113.263 121.56 112.812 121.769C112.362 121.979 111.967 122.291 111.66 122.682C110.981 123.481 110.71 124.701 110.71 126.45C110.71 128.319 110.981 129.525 111.66 130.339C112.338 131.138 113.167 131.545 114.252 131.545C115.066 131.545 115.76 131.273 116.302 130.866C116.845 130.203 117.252 129.389 117.523 128.319H117.538ZM123.266 119.185H126.251V125.365C126.944 125.365 127.351 125.093 127.607 124.822C127.894 124.566 128.165 123.767 128.708 122.546C129.265 120.933 129.944 119.984 130.622 119.592C131.164 119.185 132.265 119.049 133.636 119.049H134.028V121.204H133.621C133.079 121.204 132.536 121.34 132.265 121.476C131.993 121.611 131.707 121.868 131.571 122.139C131.436 122.41 131.164 123.089 130.757 124.023C130.622 124.566 130.351 124.958 130.215 125.229C129.944 125.5 129.672 125.907 129.115 126.179C129.808 126.299 130.351 126.706 130.773 127.234C131.164 127.791 131.707 128.59 132.129 129.661L134.164 133.564H130.622L128.843 129.796C128.843 129.796 128.708 129.661 128.708 129.525C128.708 129.525 128.572 129.269 128.301 128.862C127.894 128.183 127.622 127.656 127.351 127.505C127.007 127.34 126.632 127.252 126.251 127.249V133.7H123.266V119.185ZM135.4 126.571C135.4 125.093 135.671 123.887 136.078 122.802C136.35 122.139 136.892 121.476 137.435 120.797C138.078 120.121 138.867 119.599 139.742 119.273C140.617 118.946 141.555 118.823 142.484 118.913C143.441 118.874 144.396 119.033 145.289 119.38C146.181 119.728 146.992 120.257 147.67 120.933C148.906 122.29 149.584 124.023 149.584 126.435C149.584 128.726 148.906 130.61 147.67 131.952C146.998 132.636 146.188 133.169 145.294 133.515C144.4 133.861 143.442 134.011 142.484 133.956C141.527 134.01 140.57 133.859 139.675 133.514C138.781 133.168 137.971 132.635 137.299 131.952C135.992 130.472 135.311 128.543 135.4 126.571ZM138.535 126.435C138.535 128.048 138.942 129.269 139.621 130.203C140.45 131.002 141.399 131.409 142.484 131.409C143.72 131.409 144.67 131.002 145.348 130.203C146.177 129.389 146.449 128.048 146.449 126.435C146.501 125.093 146.115 123.77 145.348 122.667C144.985 122.272 144.542 121.96 144.048 121.752C143.553 121.544 143.02 121.445 142.484 121.461C141.264 121.461 140.314 121.868 139.485 122.667C138.816 123.806 138.486 125.114 138.535 126.435ZM152.312 119.185H155.04V128.726L161.04 119.185H164.054V133.7H161.311V124.294L155.447 133.7H152.448V119.185H152.312ZM159.954 115.688H161.311C161.252 116.494 160.916 117.255 160.361 117.843C160.074 118.125 159.732 118.342 159.355 118.483C158.978 118.623 158.577 118.682 158.176 118.657C157.226 118.657 156.548 118.386 155.99 117.843C155.447 117.301 155.176 116.637 155.04 115.688H156.397C156.397 116.095 156.683 116.502 156.955 116.773C157.226 117.044 157.633 117.18 158.176 117.18C158.718 117.18 159.14 117.029 159.412 116.773C159.683 116.502 159.819 116.095 159.954 115.688ZM34.8619 152.768V154.516H31.998V152.768C29.6768 152.632 28.0338 152.104 27.0842 151.019C26.1109 149.958 25.5727 148.57 25.5769 147.13C25.5769 145.518 26.1195 144.176 27.0842 143.091C28.0338 142.036 29.6768 141.493 31.998 141.493V140.001H34.8619V141.478C37.1832 141.629 38.8111 142.156 39.7758 143.226C40.7254 144.312 41.2831 145.638 41.2831 147.266C41.2831 148.879 40.7254 150.22 39.7758 151.155C38.8111 152.104 37.1832 152.768 34.8619 152.768ZM31.998 150.356V143.905C30.762 143.905 29.8124 144.176 29.2698 144.704C28.7121 145.246 28.4408 146.06 28.4408 147.115C28.4408 149.271 29.5411 150.356 31.998 150.356ZM34.8619 150.356C35.6759 150.356 36.3693 150.205 36.8968 149.949C37.4545 149.678 37.8615 149.406 38.1328 148.879C38.4041 148.472 38.5398 147.794 38.5398 146.995C38.5398 144.839 37.3189 143.905 34.9976 143.905V150.356H34.8469H34.8619ZM43.8606 154.516V140.136H54.7736V142.548H46.8602V145.789H54.231V148.201H46.8451V152.104H55.0299V154.516H43.8456H43.8606ZM69.0931 140.001V151.969H70.3291V157.471H67.8722V154.381H58.5871V157.471H56.1453V151.969H57.3662C57.9088 150.763 58.3158 149.271 58.5871 147.658C58.7725 145.603 58.8681 143.541 58.8735 141.478V140.001H69.0931ZM61.858 142.412C61.858 146.859 61.451 149.949 60.6521 151.969H66.2292V142.427H61.858V142.412ZM72.771 154.516V140.136H83.699V142.548H75.7856V145.789H83.1413V148.201H75.7856V152.104H83.9704V154.516H72.771ZM86.6986 140.136H91.4768C93.2404 140.136 94.4764 140.287 95.019 140.408C95.833 140.679 96.5263 141.086 97.0689 141.885C97.6116 142.563 97.8829 143.498 97.8829 144.704C97.9006 145.427 97.7489 146.144 97.4401 146.798C97.1313 147.453 96.6739 148.026 96.1043 148.472C95.5616 148.879 95.1547 149.014 94.5969 149.135C93.9187 149.286 92.8334 149.406 91.6125 149.406H89.6982V154.923H86.6835V140.151L86.6986 140.136ZM89.6982 146.588H91.3411C92.5621 146.588 93.2404 146.452 93.6473 146.316C94.0694 146.181 94.3407 145.924 94.612 145.653C94.8833 145.382 94.8833 144.975 94.8833 144.568C94.8833 144.04 94.7326 143.633 94.4764 143.226C94.205 142.834 93.783 142.699 93.2404 142.563C92.8334 142.563 92.1551 142.412 91.0547 142.412H89.6982V146.588ZM112.067 154.516H108.796L107.575 151.291H101.696L100.475 154.516H97.3403L103.068 140.136H106.203L112.082 154.516H112.067ZM106.61 148.743L104.56 143.362L102.525 148.743H106.61ZM113.981 140.001H116.981V151.969H122.708V139.986H125.723V151.954H126.929V157.471H124.487V154.381H114.117V140.001H113.966H113.981ZM129.265 140.001H131.978V149.542L137.993 140.001H140.992V154.381H138.264V144.975L132.385 154.381H129.265V140.001ZM144.263 140.001H146.991V149.542L152.99 140.001H156.005V154.381H153.262V144.975L147.398 154.381H144.263V140.001Z" fill="black"/>
</svg>
