<svg width="138" height="124" viewBox="0 0 138 124" fill="none" xmlns="http://www.w3.org/2000/svg">
<path d="M128.011 107.024V109.586H131.285V121.02H134.511V109.598H137.797V107.036H128.011V107.024ZM118.534 109.479H120.669C121.191 109.479 121.867 109.527 122.389 110.001C122.745 110.309 122.911 110.831 122.911 111.353C122.911 111.875 122.697 112.409 122.341 112.777C121.819 113.239 121.084 113.287 120.621 113.287H118.534V109.479ZM115.26 107.024V121.02H118.486V115.695H120.823C122.08 115.695 123.788 115.695 125.2 114.034C125.876 113.192 126.137 112.255 126.137 111.306C126.137 109.372 125.093 108.376 124.263 107.866C123.076 107.249 121.742 106.974 120.408 107.071H115.26V107.024ZM102.343 107.024V121.02H112.235V118.458H105.569V115.018H110.836V112.67H105.569V109.633H112.129V107.071H102.343V107.024ZM86.9821 107.024V121.02H96.412V123.95H99.3774V118.458H97.9659V107.024H94.7396V118.458H90.2678V107.024H86.9821ZM83.139 107.024H79.9008V112.504H75.3222V107.024H72.0484V121.02H75.2748V115.066H79.8533V121.02H83.0797V107.024H83.139ZM59.8666 113.975C59.8666 111.875 60.3411 110.891 60.5902 110.475C61.1595 109.527 61.8949 109.266 62.6185 109.266C63.3539 109.266 64.0775 109.527 64.6587 110.475C64.9078 110.891 65.3822 111.875 65.3822 113.975C65.4528 115.203 65.2035 116.429 64.6587 117.533C64.4593 117.903 64.1653 118.213 63.8069 118.432C63.4485 118.65 63.0384 118.77 62.6185 118.779C61.634 118.779 60.9579 118.15 60.602 117.521C60.2818 117.047 59.8666 116.062 59.8666 113.963V113.975ZM56.3793 114.022C56.3793 116.371 57.1622 118.411 58.4551 119.668C59.2379 120.392 60.5902 121.234 62.6185 121.234C64.6587 121.234 66.0109 120.404 66.7819 119.668C68.0867 118.411 68.8695 116.43 68.8695 114.022C68.8695 111.306 67.885 109.372 66.6277 108.222C65.5041 107.253 64.0535 106.748 62.571 106.81C61.4205 106.81 59.8666 107.024 58.5144 108.234C57.0637 109.804 56.2958 111.886 56.3793 114.022ZM43.0944 121.02H46.3326V114.971H47.578C48.2067 114.971 48.8235 115.018 49.2387 115.588C49.3573 115.742 49.4996 116.062 49.7606 116.893L50.1283 118.15C50.3418 118.779 50.6027 119.609 50.8044 120.036C51.2195 120.819 51.6347 120.973 51.8956 120.973H54.9203C54.5645 120.558 54.2917 120.19 54.09 119.561C53.7223 118.672 53.5088 117.936 53.2004 116.952C52.8446 115.695 52.4176 114.603 51.4805 113.975C51.155 113.749 50.7813 113.603 50.3892 113.548V113.453C50.6976 113.393 51.0653 113.287 51.3737 112.978C51.955 112.456 52.204 111.673 52.4176 111.045L52.726 109.894C53.0937 108.589 53.4614 107.961 53.6749 107.593C53.8291 107.332 53.924 107.119 54.2917 106.87H51.7414C51.3856 106.87 51.1128 106.964 50.7569 107.344C50.3816 107.818 50.1144 108.369 49.9741 108.957L49.6182 110.262C49.3454 111.092 49.1912 111.78 48.5626 112.136C48.2067 112.35 47.839 112.409 47.4713 112.409H46.4275V106.81H43.1062V121.02H43.0944ZM40.0815 111.934C39.9273 109.799 38.7293 108.589 38.5158 108.329C37.9873 107.835 37.3658 107.452 36.6876 107.202C36.0095 106.951 35.2882 106.838 34.5659 106.87C33.7821 106.836 32.9997 106.962 32.2659 107.239C31.532 107.517 30.8618 107.94 30.2958 108.483C28.9265 109.996 28.1992 111.982 28.2674 114.022C28.2674 115.434 28.5758 117.106 29.2994 118.304C29.8276 119.225 30.5972 119.985 31.5252 120.501C32.4533 121.018 33.5046 121.271 34.5659 121.234C35.2852 121.257 36.0016 121.134 36.6722 120.873C37.3429 120.612 37.9538 120.219 38.4684 119.716C39.4049 118.773 39.9909 117.538 40.129 116.216L37.1636 115.956C37.1162 116.525 36.9026 117.26 36.4875 117.841C35.9181 118.624 35.242 118.826 34.5659 118.826C33.8898 118.826 32.9053 118.565 32.2766 117.213C31.9089 116.43 31.8022 115.434 31.8022 114.022C31.8022 112.717 31.9089 111.768 32.2766 110.938C32.7867 109.847 33.4628 109.325 34.5659 109.325C35.503 109.325 36.1198 109.681 36.5824 110.511C36.8552 111.045 37.0094 111.673 37.0569 112.195L40.0815 111.934ZM16.8566 113.975C16.8566 111.875 17.3311 110.891 17.592 110.475C18.1614 109.527 18.8968 109.266 19.6204 109.266C20.3558 109.266 21.0793 109.527 21.6487 110.475C21.9097 110.891 22.3841 111.875 22.3841 113.975C22.3841 116.062 21.9097 117.059 21.6487 117.533C21.2929 118.15 20.6049 118.779 19.6322 118.779C19.2112 118.769 18.8003 118.647 18.4417 118.426C18.0832 118.205 17.7899 117.893 17.592 117.521C17.2836 117.047 16.8566 116.062 16.8566 113.963V113.975ZM13.3693 114.022C13.3693 116.371 14.1522 118.411 15.457 119.668C16.2398 120.392 17.592 121.234 19.6678 121.234C21.708 121.234 23.0602 120.404 23.8431 119.668C25.1479 118.411 25.9189 116.43 25.9189 114.022C25.9189 111.306 24.9343 109.372 23.677 108.222C22.5534 107.253 21.1029 106.748 19.6204 106.81C18.4817 106.81 16.9159 107.024 15.5637 108.234C14.8225 108.998 14.2455 109.906 13.8681 110.901C13.4907 111.896 13.321 112.959 13.3693 114.022ZM3.42936 109.479H5.56444C6.08635 109.479 6.76245 109.527 7.28436 110.001C7.64021 110.309 7.80627 110.831 7.80627 111.353C7.80627 111.875 7.59276 112.409 7.23692 112.777C6.71501 113.239 5.97959 113.287 5.51699 113.287H3.42936V109.479ZM0.203018 107.024V121.02H3.42936V115.695H5.77795C7.02341 115.695 8.74333 115.695 10.143 114.034C10.8191 113.192 11.0919 112.255 11.0919 111.306C11.1142 110.623 10.9572 109.946 10.6368 109.343C10.3163 108.739 9.84346 108.23 9.26524 107.866C8.07879 107.249 6.74407 106.974 5.41024 107.071H0.203018V107.024ZM70.0201 0.590088C65.489 0.590088 52.6311 0.744288 48.8235 0.803596H43.2011V71.3324H49.1319V3.56734C52.6904 3.46058 61.5865 2.93867 68.3476 3.51989C80.1617 4.82466 87.3498 10.0437 87.3498 21.3834C87.3498 31.525 81.8342 39.5671 72.9855 41.0736V43.3272C87.6108 42.1292 93.3873 32.6756 93.3873 21.7511C93.3873 9.8421 87.0414 0.957796 70.0201 0.590088Z" fill="black"/>
<path d="M67.8257 86.8592L67.4699 86.4915L67.3512 86.278C67.2564 86.0645 67.1022 85.8035 67.1022 85.6493C66.8412 83.7159 67.0428 81.9959 67.3038 80.0032V79.9083L67.4699 78.3426C67.5173 78.0698 67.5173 77.7614 67.5648 77.5004C68.146 71.5934 68.9763 63.5512 62.1084 56.6478C61.3499 55.9934 60.5273 55.4172 59.6531 54.9279C60.4834 54.406 61.3137 53.8366 62.144 53.1012L62.3101 52.947L62.4168 52.8284C65.8596 49.3801 67.854 44.7463 67.9918 39.8756C68.146 36.9576 67.8257 34.0278 67.4699 31.359C67.3512 30.6829 67.2089 30.1135 67.1022 29.5323C66.687 27.4447 66.426 26.0332 66.687 24.2065C66.687 24.0997 66.8412 23.8981 66.948 23.6846C66.9954 23.5778 67.0428 23.5304 67.0428 23.4711C67.1615 23.3169 67.3038 23.2101 67.4106 23.0559C68.202 22.387 69.1549 21.9372 70.1743 21.7511C70.6488 21.5969 70.6488 21.5376 70.6488 19.8652V18.4536L70.5301 17.8843H69.854C67.7754 18.1944 65.8463 19.1485 64.3384 20.6124C61.2663 23.8981 61.5272 29.2239 61.8475 34.4904C61.9424 36.6374 62.0491 38.6301 61.9424 40.4568C61.8543 42.6686 61.4876 44.8605 60.8511 46.9807C60.5869 47.9882 60.1246 48.9329 59.4913 49.7598C58.8579 50.5866 58.0661 51.279 57.1622 51.7964C56.3319 52.2709 55.3829 52.6268 54.2442 52.8877L53.3546 53.1487L53.4139 56.5529L54.2917 56.8613C60.1276 58.2254 61.5272 62.2939 62.0017 69.2922C62.0966 71.1782 62.0017 73.1591 61.8831 75.306C61.8475 75.9821 61.8475 76.7176 61.7882 77.3937C61.5865 81.5215 61.634 86.2305 64.3977 89.1485C66.2718 91.1412 69.1305 92.1257 73.1397 92.2325H74.2309V88.2114L73.0922 88.2589C70.7436 88.4249 69.0237 87.9504 67.8257 86.8592Z" fill="black"/>
</svg>
