
<svg xmlns="http://www.w3.org/2000/svg" fill="none" viewBox="0 0 32 32"><path stroke="#000" stroke-linecap="round" stroke-linejoin="round" stroke-width="2" d="M30.17 22.97v4.25a2.83 2.83 0 0 1-3.1 2.83 28.04 28.04 0 0 1-12.22-4.35 27.63 27.63 0 0 1-8.5-8.5C3.95 13.5 2.47 9.3 2 4.92a2.83 2.83 0 0 1 2.82-3.09h4.25a2.83 2.83 0 0 1 2.84 2.44c.18 1.36.5 2.7.99 3.98a2.83 2.83 0 0 1-.64 3l-1.8 1.79a22.67 22.67 0 0 0 8.5 8.5l1.8-1.8a2.83 2.83 0 0 1 2.99-.64c1.28.48 2.62.82 3.98 1a2.83 2.83 0 0 1 2.44 2.87Z"/></svg>