<svg width="35" height="36" viewBox="0 0 35 36" fill="none" xmlns="http://www.w3.org/2000/svg">
<path d="M17.5 0.950195C7.84 0.950195 0 8.7902 0 18.4502C0 28.1102 7.84 35.9502 17.5 35.9502C27.16 35.9502 35 28.1102 35 18.4502C35 8.7902 27.16 0.950195 17.5 0.950195ZM25.62 12.8502C25.3575 15.6152 24.22 22.3352 23.6425 25.4327C23.3975 26.7452 22.9075 27.1827 22.4525 27.2352C21.4375 27.3227 20.6675 26.5702 19.6875 25.9227C18.1475 24.9077 17.2725 24.2777 15.785 23.2977C14.0525 22.1602 15.1725 21.5302 16.17 20.5152C16.4325 20.2527 20.9125 16.1752 21 15.8077C21.0122 15.752 21.0105 15.6942 20.9953 15.6394C20.98 15.5845 20.9516 15.5341 20.9125 15.4927C20.8075 15.4052 20.6675 15.4402 20.545 15.4577C20.3875 15.4927 17.9375 17.1202 13.16 20.3402C12.46 20.8127 11.83 21.0577 11.27 21.0402C10.64 21.0227 9.45 20.6902 8.5575 20.3927C7.455 20.0427 6.5975 19.8502 6.6675 19.2377C6.7025 18.9227 7.14 18.6077 7.9625 18.2752C13.0725 16.0527 16.4675 14.5827 18.165 13.8827C23.03 11.8527 24.0275 11.5027 24.6925 11.5027C24.8325 11.5027 25.165 11.5377 25.375 11.7127C25.55 11.8527 25.6025 12.0452 25.62 12.1852C25.6025 12.2902 25.6375 12.6052 25.62 12.8502Z" fill="#0088CC"/>
</svg>
