<svg width="56" height="55" viewBox="0 0 56 55" fill="none" xmlns="http://www.w3.org/2000/svg">
<path fill-rule="evenodd" clip-rule="evenodd" d="M0.340881 0H55.3409V55H0.340881V0ZM35.7337 46.555C33.2314 47.5915 30.5494 48.125 27.8409 48.125C22.3708 48.125 17.1247 45.952 13.2568 42.0841C9.38887 38.2161 7.21588 32.9701 7.21588 27.5C7.21588 22.0299 9.38887 16.7839 13.2568 12.9159C17.1247 9.04799 22.3708 6.875 27.8409 6.875C30.5494 6.875 33.2314 7.40848 35.7337 8.44498C38.2361 9.48149 40.5098 11.0007 42.425 12.9159C44.3402 14.8311 45.8594 17.1048 46.8959 19.6072C47.9324 22.1095 48.4659 24.7915 48.4659 27.5C48.4659 30.2085 47.9324 32.8905 46.8959 35.3928C45.8594 37.8952 44.3402 40.1689 42.425 42.0841C40.5098 43.9993 38.2361 45.5185 35.7337 46.555ZM18.426 31.7103C21.1293 29.644 24.4384 28.5266 27.8409 28.5313C31.2287 28.5455 34.5181 29.6715 37.204 31.7363C39.8898 33.8012 41.8235 36.6906 42.7081 39.9609C45.0745 37.126 46.5836 33.6751 47.0585 30.013C47.5334 26.3509 46.9545 22.6293 45.3895 19.2845C43.8246 15.9397 41.3385 13.1104 38.2227 11.1282C35.107 9.1461 31.4907 8.09332 27.7979 8.09332C24.1051 8.09332 20.4889 9.1461 17.3731 11.1282C14.2574 13.1104 11.7713 15.9397 10.2063 19.2845C8.64137 22.6293 8.06241 26.3509 8.53734 30.013C9.01227 33.6751 10.5214 37.126 12.8878 39.9609C13.7762 36.6765 15.7228 33.7765 18.426 31.7103ZM33.5574 22.6491C33.8683 21.8984 34.0284 21.0938 34.0284 20.2812C34.0284 18.6402 33.3765 17.0664 32.2161 15.906C31.0557 14.7456 29.4819 14.0938 27.8409 14.0938C26.1999 14.0938 24.6261 14.7456 23.4657 15.906C22.3053 17.0664 21.6534 18.6402 21.6534 20.2812C21.6534 21.0938 21.8134 21.8984 22.1244 22.6491C22.4353 23.3998 22.8911 24.0819 23.4657 24.6565C24.0402 25.231 24.7223 25.6868 25.473 25.9978C26.2237 26.3087 27.0283 26.4688 27.8409 26.4688C28.6534 26.4688 29.458 26.3087 30.2087 25.9978C30.9594 25.6868 31.6416 25.231 32.2161 24.6565C32.7907 24.0819 33.2464 23.3998 33.5574 22.6491Z" fill="#D60F3C"/>
</svg>
