<svg width="35" height="36" viewBox="0 0 35 36" fill="none" xmlns="http://www.w3.org/2000/svg">
<path d="M17.5 0.950195C7.83535 0.950195 0 8.78518 0 18.4502C0 28.1152 7.83535 35.9502 17.5 35.9502C27.1647 35.9502 35 28.1152 35 18.4502C35 8.78518 27.1647 0.950195 17.5 0.950195ZM26.3769 20.3429C27.1926 21.1396 28.0555 21.8893 28.7877 22.7684C29.1121 23.1572 29.4179 23.5593 29.6506 24.0115C29.9829 24.6564 29.6829 25.3635 29.1057 25.4019L25.5205 25.4011C24.5945 25.4778 23.8576 25.1043 23.2364 24.4713C22.7405 23.9668 22.2804 23.4279 21.8028 22.9062C21.6076 22.6921 21.4021 22.4905 21.1572 22.3319C20.6684 22.0139 20.2438 22.1113 19.9638 22.6219C19.6784 23.1414 19.6132 23.7172 19.586 24.2955C19.547 25.1408 19.2921 25.3618 18.4438 25.4015C16.6314 25.4864 14.9116 25.2114 13.3132 24.2976C11.9032 23.4916 10.8119 22.3541 9.86087 21.0662C8.009 18.5555 6.59074 15.7999 5.31642 12.9651C5.02962 12.3267 5.23944 11.9851 5.94373 11.9719C7.11386 11.9493 8.28399 11.9522 9.45412 11.9708C9.93033 11.9783 10.2454 12.2508 10.4284 12.7002C11.0607 14.2559 11.8359 15.7361 12.8073 17.1089C13.0662 17.4745 13.3304 17.839 13.7068 18.0972C14.1221 18.3822 14.4386 18.288 14.6345 17.8243C14.7598 17.5296 14.8139 17.2145 14.8411 16.8987C14.9342 15.817 14.9453 14.7357 14.7841 13.6583C14.6839 12.9841 14.3047 12.5487 13.6326 12.4212C13.2903 12.3564 13.3405 12.2297 13.507 12.0342C13.7959 11.6962 14.0666 11.4871 14.6076 11.4871L18.6583 11.4864C19.2967 11.6117 19.4399 11.8981 19.5266 12.5412L19.5302 17.0427C19.5227 17.2915 19.6551 18.0291 20.102 18.192C20.4601 18.3102 20.6964 18.023 20.9105 17.7964C21.8819 16.7655 22.574 15.5489 23.1938 14.2896C23.4674 13.7342 23.7033 13.1596 23.9325 12.5838C24.1029 12.1581 24.3679 11.9486 24.8484 11.9558L28.7491 11.9604C28.864 11.9604 28.9807 11.9615 29.0946 11.9812C29.752 12.0936 29.9321 12.3765 29.7287 13.0178C29.4086 14.0253 28.7866 14.8646 28.1787 15.7061C27.527 16.6069 26.832 17.4763 26.1868 18.3811C25.5939 19.2082 25.6408 19.6246 26.3769 20.3429Z" fill="#4D76A1"/>
</svg>
