<svg width="40" height="28" viewBox="0 0 40 28" fill="none" xmlns="http://www.w3.org/2000/svg">
<path d="M39.6 6.13333C39.6 6.13333 39.2 3.33333 38 2.13333C36.5333 0.533334 34.8 0.533334 34 0.4C28.4 2.38419e-07 20 0 20 0C20 0 11.6 2.38419e-07 6 0.4C5.2 0.533334 3.46667 0.533334 2 2.13333C0.8 3.33333 0.4 6.13333 0.4 6.13333C0.4 6.13333 0 9.33333 0 12.5333V15.4667C0 18.6667 0.4 22 0.4 22C0.4 22 0.8 24.8 2 26C3.46667 27.6 5.46667 27.6 6.4 27.7333C9.6 27.8667 20 28 20 28C20 28 28.4 28 34 27.6C34.8 27.4667 36.5333 27.4667 38 25.8667C39.2 24.6667 39.6 21.8667 39.6 21.8667C39.6 21.8667 40 18.6667 40 15.4667V12.5333C40 9.33333 39.6 6.13333 39.6 6.13333ZM15.8667 19.2V8L26.6667 13.6L15.8667 19.2Z" fill="#D3261D"/>
</svg>
